<svg width="61" height="75" viewBox="0 0 61 75" fill="none" xmlns="http://www.w3.org/2000/svg">
<path opacity="0.5" d="M30.0598 60.1484C46.6614 60.1484 60.1197 46.6837 60.1197 30.0742C60.1197 13.4647 46.6614 0 30.0598 0C13.4583 0 0 13.4647 0 30.0742C0 46.6837 13.4583 60.1484 30.0598 60.1484Z" fill="#A8CFEE"/>
<g clip-path="url(#clip0_204_1437)">
<path d="M21.62 47.12L20.83 50.05C20.7788 49.9957 20.7177 49.9516 20.65 49.92C20.13 49.68 19.65 49.43 19.11 49.16C18.9376 49.0677 18.7355 49.0474 18.5481 49.1036C18.3607 49.1598 18.2032 49.288 18.11 49.46C18.0203 49.633 18.0015 49.8342 18.0575 50.0208C18.1135 50.2075 18.2399 50.365 18.41 50.46C18.94 50.75 19.49 51.02 20.05 51.27C20.1453 51.3091 20.2471 51.3295 20.35 51.33H20.5L14.24 74.64L25.24 69.64L29.37 54.22L33.48 69.53L44.48 74.53L37.14 47.24C41.1701 45.492 44.477 42.4122 46.507 38.5165C48.5369 34.6209 49.1667 30.146 48.2906 25.8415C47.4146 21.5369 45.086 17.6641 41.695 14.8717C38.3039 12.0793 34.0563 10.537 29.6636 10.503C25.271 10.4691 21 11.9455 17.5662 14.6851C14.1323 17.4248 11.7442 21.2611 10.8017 25.5516C9.85919 29.8421 10.4196 34.3262 12.3891 38.2527C14.3586 42.1793 17.6176 45.3098 21.62 47.12ZM29.51 19.84C31.4566 19.8381 33.3601 20.4135 34.9796 21.4935C36.5991 22.5735 37.8618 24.1096 38.6081 25.9075C39.3544 27.7053 39.5507 29.6842 39.1722 31.5936C38.7936 33.503 37.8573 35.2573 36.4815 36.6344C35.1058 38.0116 33.3525 38.9497 31.4434 39.3302C29.5344 39.7107 27.5554 39.5164 25.7568 38.772C23.9581 38.0275 22.4208 36.7663 21.3391 35.1479C20.2574 33.5295 19.68 31.6266 19.68 29.68C19.6787 28.3883 19.932 27.109 20.4254 25.9152C20.9189 24.7214 21.6427 23.6366 22.5556 22.7227C23.4686 21.8089 24.5527 21.0839 25.746 20.5893C26.9392 20.0946 28.2183 19.84 29.51 19.84Z" fill="#2D3361"/>
<path d="M44.1805 12.92C44.3326 13.0479 44.5287 13.1112 44.7268 13.0962C44.925 13.0812 45.1094 12.9893 45.2405 12.84C45.3051 12.7653 45.3542 12.6785 45.3852 12.5847C45.4161 12.4909 45.4282 12.3919 45.4208 12.2934C45.4133 12.1949 45.3865 12.0989 45.3419 12.0108C45.2972 11.9227 45.2356 11.8443 45.1605 11.78C44.6505 11.34 44.1005 10.9 43.5505 10.5C43.3887 10.3833 43.1872 10.3357 42.9903 10.3676C42.7934 10.3995 42.6172 10.5083 42.5005 10.67C42.3838 10.8318 42.3362 11.0333 42.3681 11.2303C42.4 11.4272 42.5087 11.6033 42.6705 11.72C43.1905 12.09 43.7005 12.5 44.1805 12.92Z" fill="#2D3361"/>
<path d="M36.6701 8.63003C37.2701 8.83003 37.8801 9.06003 38.4801 9.32003C38.5691 9.36782 38.669 9.39192 38.7701 9.39003C38.9176 9.3897 39.0617 9.34589 39.1844 9.26407C39.3071 9.18225 39.403 9.06606 39.4601 8.93003C39.5028 8.83916 39.5266 8.74054 39.53 8.64018C39.5334 8.53983 39.5163 8.43983 39.4798 8.34627C39.4433 8.25272 39.3882 8.16757 39.3177 8.09601C39.2473 8.02445 39.163 7.96798 39.0701 7.93003C38.4402 7.64967 37.7959 7.40267 37.1401 7.19003C37.0448 7.15032 36.9423 7.13071 36.8391 7.13243C36.7358 7.13415 36.6341 7.15716 36.5402 7.20003C36.4462 7.24289 36.3622 7.30468 36.2932 7.38154C36.2243 7.45839 36.172 7.54865 36.1395 7.64666C36.1071 7.74467 36.0953 7.84832 36.1047 7.95112C36.1142 8.05393 36.1448 8.15367 36.1946 8.2441C36.2444 8.33454 36.3123 8.41372 36.3941 8.47668C36.476 8.53965 36.5699 8.58504 36.6701 8.61003V8.63003Z" fill="#2D3361"/>
<path d="M30.0001 7.5C30.6501 7.5 31.3001 7.55 31.9301 7.62H32.0001C32.183 7.62792 32.3626 7.56956 32.5059 7.45566C32.6492 7.34175 32.7466 7.17995 32.7801 7C32.7998 6.80139 32.7405 6.60301 32.6152 6.44771C32.4898 6.29242 32.3084 6.19266 32.1101 6.17C31.4301 6.05 30.7401 6 30.0501 6C29.8529 5.99998 29.6636 6.07763 29.5233 6.21612C29.3829 6.35462 29.3027 6.54283 29.3001 6.74C29.2946 6.93295 29.3647 7.12041 29.4955 7.2624C29.6263 7.40438 29.8074 7.48964 30.0001 7.5Z" fill="#2D3361"/>
<path d="M48.5501 18.0501C48.617 18.1599 48.711 18.2507 48.8231 18.3137C48.9351 18.3768 49.0615 18.4099 49.1901 18.4101C49.3275 18.4079 49.4619 18.37 49.5801 18.3001C49.7436 18.1986 49.8612 18.0374 49.9079 17.8507C49.9545 17.6641 49.9267 17.4665 49.8301 17.3001C49.4701 16.7201 49.0801 16.1401 48.6701 15.5901C48.6158 15.5012 48.5436 15.4247 48.458 15.3653C48.3725 15.3059 48.2755 15.265 48.1733 15.2451C48.0711 15.2252 47.9659 15.2269 47.8643 15.2499C47.7628 15.273 47.6671 15.3169 47.5835 15.3789C47.4999 15.441 47.4301 15.5197 47.3785 15.6102C47.327 15.7007 47.2949 15.8009 47.2842 15.9045C47.2736 16.0081 47.2846 16.1128 47.3166 16.2119C47.3486 16.3109 47.4009 16.4023 47.4701 16.4801C47.8501 17.0001 48.2201 17.5101 48.5501 18.0501Z" fill="#2D3361"/>
<path d="M51.8203 29.05C51.8203 29.27 51.8203 29.48 51.8203 29.69C51.8203 30.13 51.8203 30.56 51.8203 30.99C51.812 31.1883 51.8817 31.382 52.0144 31.5296C52.147 31.6773 52.3322 31.7671 52.5303 31.78C52.7224 31.7803 52.9074 31.7068 53.0469 31.5747C53.1865 31.4426 53.27 31.2619 53.2803 31.07C53.2803 30.62 53.2803 30.16 53.2803 29.69C53.2803 29.47 53.2803 29.24 53.2803 29.01C53.2803 28.8111 53.2013 28.6203 53.0606 28.4797C52.92 28.339 52.7292 28.26 52.5303 28.26C52.3314 28.26 52.1406 28.339 51.9999 28.4797C51.8593 28.6203 51.7803 28.8111 51.7803 29.01L51.8203 29.05Z" fill="#2D3361"/>
<path d="M23.1298 8.45002C23.1995 8.45974 23.2701 8.45974 23.3398 8.45002C23.9598 8.27002 24.5898 8.11002 25.2198 7.98002C25.3163 7.96032 25.408 7.92181 25.4897 7.86667C25.5713 7.81154 25.6413 7.74086 25.6956 7.65868C25.7499 7.5765 25.7875 7.48443 25.8063 7.38771C25.825 7.291 25.8245 7.19154 25.8048 7.09502C25.7851 6.9985 25.7466 6.9068 25.6914 6.82517C25.6363 6.74353 25.5656 6.67356 25.4835 6.61923C25.4013 6.56491 25.3092 6.52731 25.2125 6.50857C25.1158 6.48983 25.0163 6.49032 24.9198 6.51002C24.2498 6.65002 23.5698 6.82002 22.9198 7.01002C22.7299 7.06998 22.5712 7.20205 22.4777 7.37784C22.3842 7.55362 22.3634 7.75907 22.4198 7.95002C22.4717 8.09672 22.5679 8.22365 22.6951 8.31323C22.8223 8.40282 22.9742 8.45062 23.1298 8.45002Z" fill="#2D3361"/>
<path d="M51.16 24.27C51.2034 24.4313 51.2981 24.5742 51.4297 24.677C51.5614 24.7798 51.723 24.837 51.89 24.84C51.9496 24.8495 52.0104 24.8495 52.07 24.84C52.1656 24.8177 52.2558 24.7766 52.3354 24.7191C52.415 24.6616 52.4823 24.5889 52.5335 24.5051C52.5847 24.4214 52.6187 24.3283 52.6335 24.2313C52.6484 24.1342 52.6438 24.0352 52.62 23.94C52.45 23.27 52.26 22.61 52.03 21.94C52.0055 21.8381 51.96 21.7426 51.8964 21.6594C51.8327 21.5763 51.7524 21.5074 51.6605 21.4571C51.5686 21.4069 51.4672 21.3765 51.3629 21.3678C51.2585 21.3591 51.1535 21.3724 51.0546 21.4068C50.9557 21.4412 50.8651 21.4959 50.7886 21.5674C50.7121 21.6389 50.6514 21.7257 50.6105 21.822C50.5695 21.9184 50.5492 22.0223 50.5509 22.127C50.5525 22.2317 50.5761 22.3349 50.62 22.43C50.82 23 51 23.65 51.16 24.27Z" fill="#2D3361"/>
<path d="M49.4202 42.69C49.518 42.5277 49.5508 42.3343 49.5118 42.1488C49.4728 41.9632 49.3651 41.7993 49.2102 41.69C49.046 41.5955 48.8525 41.5657 48.6675 41.6064C48.4826 41.6471 48.3194 41.7554 48.2102 41.91C47.8602 42.44 47.4702 42.97 47.0802 43.47C47.0179 43.5473 46.9716 43.6361 46.9439 43.7314C46.9162 43.8267 46.9077 43.9265 46.9188 44.0251C46.93 44.1237 46.9606 44.2191 47.0089 44.3058C47.0572 44.3924 47.1222 44.4687 47.2002 44.53C47.331 44.6338 47.4932 44.6901 47.6602 44.69C47.7741 44.6897 47.8864 44.6634 47.9886 44.6131C48.0908 44.5629 48.1803 44.49 48.2502 44.4001C48.669 43.8503 49.0595 43.2796 49.4202 42.69Z" fill="#2D3361"/>
<path d="M43.64 46.87C43.14 47.28 42.64 47.66 42.09 48.02C41.9367 48.1308 41.8309 48.2954 41.7939 48.4808C41.7568 48.6662 41.7911 48.8588 41.89 49.02C41.9579 49.1221 42.0501 49.2057 42.1583 49.2633C42.2666 49.3209 42.3874 49.3507 42.51 49.35C42.6587 49.352 42.8047 49.3102 42.93 49.23C43.5 48.84 44.06 48.43 44.59 47.99C44.7263 47.8671 44.8128 47.6984 44.8331 47.5159C44.8533 47.3335 44.806 47.1499 44.7 47C44.5759 46.8433 44.3951 46.7418 44.1967 46.7174C43.9983 46.6931 43.7983 46.7479 43.64 46.87Z" fill="#2D3361"/>
<path d="M16.8305 11.43C16.9776 11.4315 17.1212 11.386 17.2405 11.3C17.7805 10.94 18.3305 10.6 18.8905 10.3C18.9876 10.2588 19.0748 10.1976 19.1466 10.1204C19.2184 10.0432 19.2731 9.95166 19.3071 9.85187C19.3412 9.75208 19.3538 9.64623 19.3442 9.54124C19.3345 9.43624 19.3029 9.33446 19.2512 9.24252C19.1996 9.15059 19.1292 9.07057 19.0446 9.0077C18.9599 8.94482 18.863 8.9005 18.7601 8.87761C18.6571 8.85473 18.5505 8.85381 18.4472 8.87491C18.3439 8.896 18.2462 8.93864 18.1605 9.00004C17.5705 9.33004 16.9705 9.69004 16.4005 10.08C16.2473 10.1908 16.1415 10.3554 16.1044 10.5408C16.0673 10.7262 16.1017 10.9188 16.2005 11.08C16.267 11.1872 16.3598 11.2757 16.47 11.3369C16.5803 11.3982 16.7044 11.4302 16.8305 11.43Z" fill="#2D3361"/>
<path d="M50.8102 38.54C50.8956 38.5757 50.9876 38.5927 51.0802 38.59C51.2317 38.59 51.3796 38.5442 51.5046 38.4585C51.6295 38.3728 51.7256 38.2513 51.7801 38.11C52.0201 37.47 52.2401 36.82 52.4302 36.11C52.4828 35.9204 52.4589 35.7177 52.3635 35.5456C52.2681 35.3735 52.1089 35.2457 51.9201 35.19C51.8256 35.161 51.7262 35.1512 51.6279 35.1613C51.5295 35.1714 51.4342 35.2011 51.3475 35.2486C51.2608 35.2962 51.1845 35.3606 51.1231 35.4381C51.0618 35.5156 51.0165 35.6047 50.9902 35.7C50.8102 36.32 50.6002 36.94 50.3802 37.53C50.3383 37.6241 50.3163 37.7258 50.3155 37.8287C50.3146 37.9317 50.335 38.0338 50.3754 38.1285C50.4157 38.2233 50.4751 38.3087 50.5499 38.3795C50.6247 38.4503 50.7133 38.5049 50.8102 38.54Z" fill="#2D3361"/>
<path d="M7.99988 22.18C8.08662 22.2111 8.17778 22.2279 8.26988 22.23C8.4217 22.2315 8.57031 22.1862 8.69553 22.1004C8.82076 22.0145 8.91654 21.8922 8.96988 21.75C9.19988 21.15 9.45988 20.55 9.73988 19.98C9.78321 19.8914 9.80866 19.7951 9.81478 19.6966C9.8209 19.5981 9.80755 19.4994 9.77552 19.4061C9.74348 19.3128 9.69338 19.2267 9.62807 19.1527C9.56276 19.0787 9.48352 19.0184 9.39488 18.975C9.30623 18.9317 9.20992 18.9062 9.11144 18.9001C9.01297 18.894 8.91425 18.9074 8.82092 18.9394C8.7276 18.9714 8.6415 19.0215 8.56754 19.0868C8.49358 19.1521 8.43321 19.2314 8.38988 19.32C8.08988 19.94 7.80988 20.57 7.56988 21.21C7.53438 21.302 7.51735 21.4 7.51975 21.4985C7.52216 21.597 7.54395 21.694 7.58388 21.7841C7.62381 21.8742 7.68111 21.9555 7.75249 22.0235C7.82386 22.0914 7.90793 22.1446 7.99988 22.18Z" fill="#2D3361"/>
<path d="M14.6603 47.7301C14.7668 47.7296 14.872 47.7061 14.9687 47.6613C15.0653 47.6164 15.1512 47.5512 15.2203 47.4701C15.3494 47.3192 15.4143 47.1239 15.4012 46.9258C15.3881 46.7277 15.2981 46.5426 15.1503 46.4101C14.6603 45.9901 14.1503 45.5401 13.7403 45.0801C13.5997 44.9396 13.409 44.8607 13.2103 44.8607C13.0115 44.8607 12.8209 44.9396 12.6803 45.0801C12.5398 45.2207 12.4609 45.4113 12.4609 45.6101C12.4609 45.8088 12.5398 45.9994 12.6803 46.1401C13.1603 46.6301 13.6803 47.1401 14.1803 47.5601C14.3171 47.6682 14.4859 47.7279 14.6603 47.7301Z" fill="#2D3361"/>
<path d="M6.75009 28.9999C6.94064 29.0004 7.1242 28.9283 7.2635 28.7982C7.4028 28.6682 7.48739 28.4901 7.50009 28.2999C7.50009 27.6599 7.60009 27.0099 7.70009 26.3799C7.72873 26.1811 7.67748 25.979 7.55755 25.8179C7.43762 25.6567 7.25877 25.5496 7.06009 25.5199C6.86327 25.4967 6.66509 25.5503 6.50677 25.6695C6.34845 25.7887 6.24219 25.9644 6.21009 26.1599C6.11009 26.8399 6.04009 27.5299 6.00009 28.2099C5.99465 28.3118 6.01003 28.4136 6.04528 28.5093C6.08053 28.6049 6.13491 28.6924 6.2051 28.7663C6.2753 28.8403 6.35983 28.8991 6.45353 28.9393C6.54723 28.9795 6.64814 29.0001 6.75009 28.9999Z" fill="#2D3361"/>
<path d="M6.92023 32.54C6.82248 32.5545 6.72864 32.5885 6.64424 32.6399C6.55984 32.6913 6.48658 32.7591 6.42879 32.8392C6.371 32.9194 6.32986 33.0103 6.30777 33.1066C6.28569 33.2029 6.28313 33.3027 6.30023 33.4C6.41023 34.08 6.54023 34.76 6.71023 35.4C6.75053 35.563 6.84437 35.7078 6.97673 35.8112C7.10909 35.9145 7.2723 35.9704 7.44023 35.97H7.62023C7.81225 35.9205 7.97687 35.797 8.07806 35.6265C8.17926 35.4559 8.2088 35.2523 8.16023 35.06C8.01023 34.44 7.88023 33.8 7.78023 33.16C7.74832 32.9638 7.63981 32.7883 7.47855 32.672C7.31729 32.5558 7.11647 32.5083 6.92023 32.54Z" fill="#2D3361"/>
<path d="M11.7099 16.18C11.8238 16.1797 11.9362 16.1534 12.0384 16.1031C12.1406 16.0529 12.2301 15.98 12.2999 15.89C12.6999 15.39 13.1199 14.89 13.5699 14.43C13.6559 14.363 13.7263 14.2781 13.7761 14.1811C13.8259 14.0842 13.854 13.9775 13.8584 13.8686C13.8628 13.7597 13.8434 13.6511 13.8015 13.5504C13.7597 13.4498 13.6964 13.3594 13.616 13.2857C13.5357 13.212 13.4403 13.1567 13.3364 13.1237C13.2325 13.0906 13.1227 13.0806 13.0145 13.0944C12.9064 13.1081 12.8025 13.1452 12.7102 13.2032C12.6179 13.2612 12.5393 13.3386 12.4799 13.43C11.9999 13.9 11.5499 14.42 11.1299 15C11.02 15.1511 10.9713 15.3381 10.9936 15.5236C11.0158 15.7091 11.1074 15.8793 11.2499 16C11.3785 16.1103 11.5407 16.1737 11.7099 16.18Z" fill="#2D3361"/>
<path d="M8.83016 39.2499C8.7424 39.2935 8.66416 39.354 8.59997 39.428C8.53578 39.502 8.48692 39.588 8.45622 39.681C8.42552 39.774 8.4136 39.8722 8.42114 39.9699C8.42869 40.0675 8.45554 40.1627 8.50016 40.2499C8.80016 40.8699 9.14016 41.4699 9.50016 42.0599C9.56703 42.1698 9.66101 42.2606 9.77309 42.3236C9.88517 42.3867 10.0116 42.4198 10.1402 42.4199C10.2775 42.4178 10.4119 42.3799 10.5302 42.3099C10.6881 42.2036 10.801 42.0426 10.8472 41.8579C10.8933 41.6733 10.8695 41.4781 10.7802 41.3099C10.4378 40.7633 10.124 40.1992 9.84016 39.6199C9.79927 39.5284 9.74042 39.4459 9.66711 39.3775C9.5938 39.3091 9.5075 39.256 9.41334 39.2215C9.31917 39.1871 9.21904 39.1718 9.11887 39.1767C9.0187 39.1815 8.92053 39.2065 8.83016 39.2499Z" fill="#2D3361"/>
</g>
<defs>
<clipPath id="clip0_204_1437">
<rect width="47.33" height="68.64" fill="white" transform="translate(6 6)"/>
</clipPath>
</defs>
</svg>
