<svg width="61" height="98" viewBox="0 0 61 98" fill="none" xmlns="http://www.w3.org/2000/svg">
<path opacity="0.5" d="M30.0598 79.1484C46.6614 79.1484 60.1197 65.6837 60.1197 49.0742C60.1197 32.4647 46.6614 19 30.0598 19C13.4583 19 0 32.4647 0 49.0742C0 65.6837 13.4583 79.1484 30.0598 79.1484Z" fill="#A8CFEE"/>
<g clip-path="url(#clip0_204_1439)">
<path d="M35.4498 40.13H49.5198C50.0574 40.1286 50.5869 40.2606 51.061 40.5141C51.535 40.7677 51.9388 41.1348 52.2361 41.5828C52.5333 42.0307 52.7149 42.5453 52.7644 43.0806C52.8139 43.6159 52.7299 44.1552 52.5198 44.65L31.6298 93.52C31.5266 93.764 31.5244 94.039 31.6238 94.2847C31.7231 94.5303 31.9159 94.7264 32.1598 94.83C32.282 94.8861 32.4154 94.9135 32.5498 94.91C32.745 94.9107 32.9361 94.8542 33.0995 94.7476C33.263 94.641 33.3917 94.4889 33.4698 94.31L54.3398 45.43C54.678 44.6328 54.8136 43.7642 54.7348 42.9018C54.6559 42.0394 54.3649 41.2099 53.8877 40.4872C53.4106 39.7645 52.762 39.1711 51.9999 38.7598C51.2378 38.3486 50.3858 38.1322 49.5198 38.13H35.4498C35.1846 38.13 34.9302 38.2354 34.7427 38.4229C34.5552 38.6104 34.4498 38.8648 34.4498 39.13C34.4498 39.3952 34.5552 39.6496 34.7427 39.8371C34.9302 40.0246 35.1846 40.13 35.4498 40.13Z" fill="#2D3361"/>
<path d="M32.24 10.5C32.3393 10.5013 32.4379 10.4829 32.5301 10.4458C32.6222 10.4087 32.7061 10.3537 32.7768 10.2839C32.8475 10.2141 32.9037 10.131 32.942 10.0393C32.9803 9.94769 33 9.84934 33 9.75V7.75C33 7.55109 32.921 7.36032 32.7803 7.21967C32.6397 7.07902 32.4489 7 32.25 7C32.0511 7 31.8603 7.07902 31.7197 7.21967C31.579 7.36032 31.5 7.55109 31.5 7.75V9.75C31.5025 9.94641 31.581 10.1342 31.7189 10.274C31.8569 10.4139 32.0436 10.4948 32.24 10.5Z" fill="#2D3361"/>
<path d="M32.24 3.5C32.3393 3.50132 32.4379 3.4829 32.5301 3.44581C32.6222 3.40871 32.7061 3.35367 32.7768 3.2839C32.8475 3.21412 32.9037 3.13099 32.942 3.03934C32.9803 2.94769 33 2.84934 33 2.75V0.75C33 0.551088 32.921 0.360322 32.7803 0.21967C32.6397 0.0790176 32.4489 0 32.25 0C32.0511 0 31.8603 0.0790176 31.7197 0.21967C31.579 0.360322 31.5 0.551088 31.5 0.75V2.75C31.5025 2.94641 31.581 3.13422 31.7189 3.27404C31.8569 3.41387 32.0436 3.49485 32.24 3.5Z" fill="#2D3361"/>
<path d="M32.2402 17.5C32.4391 17.5 32.6299 17.421 32.7706 17.2803C32.9112 17.1397 32.9902 16.9489 32.9902 16.75V14.75C32.9902 14.5511 32.9112 14.3603 32.7706 14.2197C32.6299 14.079 32.4391 14 32.2402 14C32.0413 14 31.8506 14.079 31.7099 14.2197C31.5693 14.3603 31.4902 14.5511 31.4902 14.75V16.75C31.4928 16.9481 31.5727 17.1374 31.7128 17.2775C31.8529 17.4176 32.0421 17.4974 32.2402 17.5Z" fill="#2D3361"/>
<path d="M32.2402 31.5C32.4391 31.5 32.6299 31.421 32.7706 31.2803C32.9112 31.1397 32.9902 30.9489 32.9902 30.75V28.75C32.9902 28.5511 32.9112 28.3603 32.7706 28.2197C32.6299 28.079 32.4391 28 32.2402 28C32.0413 28 31.8506 28.079 31.7099 28.2197C31.5693 28.3603 31.4902 28.5511 31.4902 28.75V30.75C31.4928 30.9481 31.5727 31.1374 31.7128 31.2775C31.8529 31.4176 32.0421 31.4974 32.2402 31.5Z" fill="#2D3361"/>
<path d="M32.2402 24.5C32.4391 24.5 32.6299 24.421 32.7706 24.2803C32.9112 24.1397 32.9902 23.9489 32.9902 23.75V21.75C32.9902 21.5511 32.9112 21.3603 32.7706 21.2197C32.6299 21.079 32.4391 21 32.2402 21C32.0413 21 31.8506 21.079 31.7099 21.2197C31.5693 21.3603 31.4902 21.5511 31.4902 21.75V23.75C31.4928 23.9481 31.5727 24.1374 31.7128 24.2775C31.8529 24.4176 32.0421 24.4974 32.2402 24.5Z" fill="#2D3361"/>
<path d="M32.2402 38.5C32.4391 38.5 32.6299 38.421 32.7706 38.2803C32.9112 38.1397 32.9902 37.9489 32.9902 37.75V35.75C32.9902 35.5511 32.9112 35.3603 32.7706 35.2197C32.6299 35.079 32.4391 35 32.2402 35C32.0413 35 31.8506 35.079 31.7099 35.2197C31.5693 35.3603 31.4902 35.5511 31.4902 35.75V37.75C31.4928 37.9481 31.5727 38.1374 31.7128 38.2775C31.8529 38.4176 32.0421 38.4974 32.2402 38.5Z" fill="#2D3361"/>
<path d="M28.2305 80.69C28.2305 80.4911 28.1515 80.3003 28.0108 80.1597C27.8701 80.019 27.6794 79.94 27.4805 79.94C27.2816 79.94 27.0908 80.019 26.9501 80.1597C26.8095 80.3003 26.7305 80.4911 26.7305 80.69V82.69C26.7305 82.8889 26.8095 83.0797 26.9501 83.2203C27.0908 83.361 27.2816 83.44 27.4805 83.44C27.6794 83.44 27.8701 83.361 28.0108 83.2203C28.1515 83.0797 28.2305 82.8889 28.2305 82.69V80.69Z" fill="#2D3361"/>
<path d="M27.4805 93.94C27.2816 93.94 27.0908 94.019 26.9501 94.1597C26.8095 94.3003 26.7305 94.4911 26.7305 94.69V96.69C26.7305 96.8889 26.8095 97.0797 26.9501 97.2203C27.0908 97.361 27.2816 97.44 27.4805 97.44C27.6794 97.44 27.8701 97.361 28.0108 97.2203C28.1515 97.0797 28.2305 96.8889 28.2305 96.69V94.69C28.2305 94.4911 28.1515 94.3003 28.0108 94.1597C27.8701 94.019 27.6794 93.94 27.4805 93.94Z" fill="#2D3361"/>
<path d="M28.2305 87.69C28.2305 87.4911 28.1515 87.3003 28.0108 87.1597C27.8701 87.019 27.6794 86.94 27.4805 86.94C27.2816 86.94 27.0908 87.019 26.9501 87.1597C26.8095 87.3003 26.7305 87.4911 26.7305 87.69V89.69C26.7305 89.8889 26.8095 90.0797 26.9501 90.2203C27.0908 90.361 27.2816 90.44 27.4805 90.44C27.6794 90.44 27.8701 90.361 28.0108 90.2203C28.1515 90.0797 28.2305 89.8889 28.2305 89.69V87.69Z" fill="#2D3361"/>
<path d="M28.2305 66.69C28.2305 66.4911 28.1515 66.3003 28.0108 66.1597C27.8701 66.019 27.6794 65.94 27.4805 65.94C27.2816 65.94 27.0908 66.019 26.9501 66.1597C26.8095 66.3003 26.7305 66.4911 26.7305 66.69V68.69C26.7305 68.8889 26.8095 69.0797 26.9501 69.2203C27.0908 69.361 27.2816 69.44 27.4805 69.44C27.6794 69.44 27.8701 69.361 28.0108 69.2203C28.1515 69.0797 28.2305 68.8889 28.2305 68.69V66.69Z" fill="#2D3361"/>
<path d="M28.2305 73.69C28.2305 73.4911 28.1515 73.3003 28.0108 73.1597C27.8701 73.019 27.6794 72.94 27.4805 72.94C27.2816 72.94 27.0908 73.019 26.9501 73.1597C26.8095 73.3003 26.7305 73.4911 26.7305 73.69V75.69C26.7305 75.8889 26.8095 76.0797 26.9501 76.2203C27.0908 76.361 27.2816 76.44 27.4805 76.44C27.6794 76.44 27.8701 76.361 28.0108 76.2203C28.1515 76.0797 28.2305 75.8889 28.2305 75.69V73.69Z" fill="#2D3361"/>
<path d="M28.2305 59.69C28.2305 59.4911 28.1515 59.3003 28.0108 59.1597C27.8701 59.019 27.6794 58.94 27.4805 58.94C27.2816 58.94 27.0908 59.019 26.9501 59.1597C26.8095 59.3003 26.7305 59.4911 26.7305 59.69V61.69C26.7305 61.8889 26.8095 62.0797 26.9501 62.2203C27.0908 62.361 27.2816 62.44 27.4805 62.44C27.6794 62.44 27.8701 62.361 28.0108 62.2203C28.1515 62.0797 28.2305 61.8889 28.2305 61.69V59.69Z" fill="#2D3361"/>
<path d="M11.0703 58H26.6203C26.8855 58 27.1399 57.8946 27.3274 57.7071C27.5149 57.5196 27.6203 57.2652 27.6203 57C27.6203 56.7348 27.5149 56.4804 27.3274 56.2929C27.1399 56.1054 26.8855 56 26.6203 56H11.0703C10.5327 56.0014 10.0032 55.8694 9.52911 55.6159C9.05506 55.3623 8.65131 54.9952 8.35403 54.5473C8.05674 54.0993 7.87521 53.5847 7.82569 53.0494C7.77617 52.5141 7.86021 51.9748 8.07029 51.48L27.0003 7.25001C27.1041 7.00723 27.1077 6.73324 27.0103 6.48782C26.9129 6.2424 26.7224 6.04548 26.4803 5.94001C26.3589 5.88734 26.2283 5.85928 26.096 5.85746C25.9637 5.85563 25.8324 5.88007 25.7096 5.92937C25.5868 5.97867 25.4751 6.05183 25.3808 6.14464C25.2865 6.23744 25.2115 6.34803 25.1603 6.47001L6.25029 50.67C5.90297 51.4685 5.76013 52.341 5.83466 53.2086C5.9092 54.0761 6.19877 54.9115 6.6772 55.639C7.15562 56.3666 7.80782 56.9635 8.57484 57.3757C9.34186 57.7879 10.1995 58.0025 11.0703 58Z" fill="#2D3361"/>
<path d="M10.8607 52.82C10.8947 52.8713 10.9407 52.9136 10.9947 52.9433C11.0487 52.9729 11.1091 52.9889 11.1707 52.99H31.9007V83.26C31.901 83.3466 31.9309 83.4306 31.9855 83.4978C32.04 83.5651 32.116 83.6118 32.2007 83.63H32.2807C32.3537 83.6295 32.425 83.6074 32.4855 83.5665C32.546 83.5256 32.593 83.4676 32.6207 83.4L49.7607 43.27C49.7904 43.2165 49.8061 43.1563 49.8061 43.095C49.8061 43.0338 49.7904 42.9735 49.7607 42.92C49.7273 42.868 49.6814 42.8253 49.6273 42.7956C49.5731 42.7659 49.5124 42.7502 49.4507 42.75H28.6807V12.47C28.6746 12.3868 28.6413 12.3079 28.5859 12.2455C28.5305 12.183 28.4561 12.1406 28.3742 12.1247C28.2923 12.1087 28.2074 12.1202 28.1327 12.1573C28.0579 12.1944 27.9975 12.2551 27.9607 12.33L10.8307 52.46C10.8054 52.5178 10.7949 52.581 10.8001 52.6438C10.8054 52.7066 10.8262 52.7672 10.8607 52.82Z" fill="#2D3361"/>
<path d="M43.6902 76.72L42.9102 78.55C42.8675 78.6409 42.8437 78.7395 42.8403 78.8399C42.8369 78.9402 42.8539 79.0402 42.8904 79.1338C42.9269 79.2273 42.982 79.3125 43.0525 79.384C43.1229 79.4556 43.2072 79.5121 43.3002 79.55C43.3954 79.5891 43.4972 79.6095 43.6002 79.61C43.7474 79.6084 43.891 79.5641 44.0134 79.4824C44.1359 79.4008 44.2321 79.2853 44.2902 79.15L45.0702 77.32C45.1115 77.2289 45.1341 77.1305 45.1368 77.0305C45.1395 76.9305 45.1222 76.831 45.0858 76.7379C45.0495 76.6447 44.9949 76.5597 44.9252 76.488C44.8555 76.4162 44.7722 76.3591 44.6802 76.32C44.4957 76.2431 44.2884 76.242 44.1031 76.3169C43.9178 76.3917 43.7695 76.5366 43.6902 76.72Z" fill="#2D3361"/>
<path d="M38.1904 89.59L37.6304 90.91C37.5891 91.0011 37.5664 91.0995 37.5637 91.1995C37.5611 91.2995 37.5784 91.399 37.6147 91.4921C37.6511 91.5853 37.7057 91.6703 37.7753 91.7421C37.845 91.8138 37.9283 91.8709 38.0204 91.91C38.1156 91.9491 38.2175 91.9695 38.3204 91.97C38.4673 91.9669 38.6101 91.9207 38.731 91.8371C38.8519 91.7536 38.9455 91.6363 39.0004 91.5L39.5604 90.18C39.6031 90.0891 39.6269 89.9905 39.6303 89.8901C39.6337 89.7898 39.6166 89.6898 39.5801 89.5962C39.5437 89.5027 39.4885 89.4175 39.4181 89.346C39.3476 89.2744 39.2633 89.2179 39.1704 89.18C39.0791 89.1424 38.9814 89.1232 38.8827 89.1235C38.784 89.1237 38.6863 89.1435 38.5953 89.1816C38.5042 89.2197 38.4216 89.2754 38.3521 89.3454C38.2826 89.4155 38.2277 89.4986 38.1904 89.59Z" fill="#2D3361"/>
<path d="M49.1903 63.84L48.4003 65.68C48.3593 65.7717 48.3371 65.8707 48.3351 65.9712C48.3331 66.0716 48.3513 66.1714 48.3886 66.2647C48.4259 66.3579 48.4816 66.4428 48.5523 66.5141C48.623 66.5855 48.7073 66.6419 48.8003 66.68C48.8908 66.7228 48.9902 66.7433 49.0903 66.74C49.2367 66.7405 49.38 66.6982 49.5026 66.6182C49.6252 66.5383 49.7217 66.4242 49.7803 66.29L50.5703 64.45C50.6113 64.3583 50.6334 64.2593 50.6355 64.1589C50.6375 64.0584 50.6193 63.9586 50.582 63.8653C50.5447 63.7721 50.489 63.6872 50.4183 63.6159C50.3476 63.5445 50.2632 63.4881 50.1703 63.45C50.0804 63.4105 49.9836 63.3892 49.8855 63.3874C49.7873 63.3857 49.6898 63.4035 49.5986 63.4398C49.5074 63.4761 49.4243 63.5301 49.3542 63.5989C49.2841 63.6676 49.2284 63.7495 49.1903 63.84Z" fill="#2D3361"/>
<path d="M40.9402 83.15L40.1602 85C40.1175 85.0909 40.0937 85.1895 40.0903 85.2898C40.0869 85.3902 40.1039 85.4902 40.1404 85.5837C40.1769 85.6773 40.232 85.7624 40.3025 85.834C40.3729 85.9056 40.4572 85.962 40.5502 86C40.6454 86.0391 40.7472 86.0595 40.8502 86.06C40.9977 86.0597 41.1418 86.0158 41.2645 85.934C41.3873 85.8522 41.4831 85.736 41.5402 85.6L42.3202 83.76C42.3629 83.6691 42.3867 83.5705 42.3901 83.4701C42.3935 83.3698 42.3764 83.2698 42.3399 83.1762C42.3035 83.0827 42.2483 82.9975 42.1779 82.926C42.1074 82.8544 42.0231 82.7979 41.9302 82.76C41.747 82.6825 41.5406 82.6799 41.3555 82.7528C41.1704 82.8258 41.0213 82.9683 40.9402 83.15Z" fill="#2D3361"/>
<path d="M46.4403 70.28L45.6503 72.12C45.6093 72.2117 45.5871 72.3107 45.5851 72.4112C45.5831 72.5116 45.6013 72.6114 45.6386 72.7047C45.6759 72.798 45.7316 72.8828 45.8023 72.9541C45.873 73.0255 45.9573 73.0819 46.0503 73.12C46.1423 73.1581 46.2407 73.1785 46.3403 73.18C46.4869 73.1818 46.6308 73.14 46.7537 73.0599C46.8765 72.9798 46.9728 72.865 47.0303 72.73L47.8203 70.89C47.859 70.7994 47.8795 70.7021 47.8807 70.6035C47.8818 70.505 47.8635 70.4072 47.8268 70.3157C47.7901 70.2242 47.7358 70.1409 47.6669 70.0704C47.598 70 47.5159 69.9438 47.4253 69.905C47.3347 69.8663 47.2373 69.8458 47.1388 69.8447C47.0402 69.8435 46.9424 69.8618 46.851 69.8985C46.7595 69.9352 46.6762 69.9895 46.6057 70.0584C46.5352 70.1273 46.479 70.2094 46.4403 70.3V70.28Z" fill="#2D3361"/>
<path d="M53.9 52.8C53.8604 52.8919 53.8393 52.9907 53.838 53.0908C53.8366 53.1909 53.8551 53.2902 53.8922 53.3831C53.9294 53.476 53.9846 53.5607 54.0545 53.6322C54.1245 53.7038 54.2079 53.7608 54.3 53.8C54.3914 53.8399 54.4902 53.8603 54.59 53.86C54.7375 53.8597 54.8816 53.8159 55.0043 53.7341C55.1271 53.6522 55.2229 53.5361 55.28 53.4L56.07 51.56C56.1213 51.4672 56.1523 51.3646 56.161 51.2589C56.1698 51.1532 56.156 51.0469 56.1206 50.9469C56.0852 50.847 56.0291 50.7556 55.9558 50.679C55.8826 50.6023 55.7939 50.5421 55.6956 50.5022C55.5973 50.4623 55.4918 50.4437 55.3858 50.4477C55.2798 50.4516 55.1759 50.478 55.0809 50.525C54.9858 50.572 54.9018 50.6387 54.8345 50.7206C54.7671 50.8025 54.7178 50.8977 54.69 51L53.9 52.8Z" fill="#2D3361"/>
<path d="M51.94 57.4L51.15 59.24C51.1104 59.3319 51.0893 59.4307 51.088 59.5308C51.0866 59.6308 51.1051 59.7302 51.1422 59.8231C51.1794 59.916 51.2346 60.0007 51.3045 60.0722C51.3745 60.1438 51.4579 60.2008 51.55 60.24C51.6414 60.2799 51.7402 60.3003 51.84 60.3C51.9875 60.2997 52.1316 60.2559 52.2543 60.174C52.3771 60.0922 52.4729 59.976 52.53 59.84L53.32 58C53.3982 57.817 53.4005 57.6104 53.3265 57.4257C53.2524 57.241 53.108 57.0932 52.925 57.015C52.742 56.9368 52.5354 56.9344 52.3507 57.0085C52.1659 57.0826 52.0182 57.227 51.94 57.41V57.4Z" fill="#2D3361"/>
<path d="M11.7001 29.25C11.7953 29.2891 11.8971 29.3095 12.0001 29.31C12.147 29.3072 12.29 29.2623 12.4123 29.1808C12.5345 29.0993 12.6309 28.9845 12.6901 28.85L13.4701 27C13.5088 26.9094 13.5293 26.812 13.5304 26.7135C13.5316 26.615 13.5132 26.5172 13.4766 26.4257C13.4399 26.3342 13.3856 26.2509 13.3167 26.1804C13.2478 26.11 13.1657 26.0537 13.0751 26.015C12.8921 25.9368 12.6855 25.9344 12.5008 26.0085C12.316 26.0826 12.1683 26.227 12.0901 26.41L11.3101 28.25C11.2688 28.3411 11.2461 28.4395 11.2434 28.5395C11.2407 28.6395 11.2581 28.739 11.2944 28.8322C11.3308 28.9253 11.3854 29.0103 11.455 29.0821C11.5247 29.1538 11.608 29.2109 11.7001 29.25Z" fill="#2D3361"/>
<path d="M9.00052 35.68C9.09573 35.7191 9.19759 35.7395 9.30052 35.74C9.4469 35.7405 9.59023 35.6982 9.71283 35.6182C9.83544 35.5382 9.93197 35.4241 9.99052 35.29L10.7705 33.45C10.8132 33.3591 10.837 33.2605 10.8404 33.1601C10.8438 33.0598 10.8268 32.9598 10.7903 32.8662C10.7538 32.7727 10.6987 32.6875 10.6282 32.616C10.5578 32.5444 10.4735 32.4879 10.3805 32.45C10.2894 32.4087 10.191 32.386 10.091 32.3834C9.99105 32.3807 9.89155 32.398 9.79837 32.4343C9.70519 32.4707 9.62023 32.5253 9.54847 32.595C9.47671 32.6646 9.4196 32.7479 9.38052 32.84L8.56052 34.7C8.52228 34.793 8.50338 34.8927 8.50498 34.9932C8.50657 35.0938 8.52863 35.1929 8.5698 35.2846C8.61098 35.3763 8.6704 35.4587 8.74446 35.5266C8.81851 35.5946 8.90564 35.6468 9.00052 35.68Z" fill="#2D3361"/>
<path d="M6.20014 42.12C6.29535 42.1591 6.39721 42.1795 6.50014 42.18C6.64652 42.1805 6.78984 42.1382 6.91245 42.0582C7.03506 41.9783 7.13159 41.8642 7.19014 41.73L8.00014 39.89C8.04143 39.7989 8.06409 39.7005 8.06677 39.6005C8.06946 39.5005 8.05212 39.401 8.01578 39.3079C7.97944 39.2147 7.92484 39.1297 7.85517 39.058C7.78551 38.9862 7.7022 38.9291 7.61014 38.89C7.51824 38.8504 7.41943 38.8293 7.31937 38.828C7.2193 38.8267 7.11997 38.8451 7.02705 38.8823C6.93414 38.9195 6.84948 38.9746 6.77794 39.0446C6.70639 39.1145 6.64937 39.198 6.61014 39.29L5.83014 41.13C5.74865 41.3105 5.74182 41.5158 5.81113 41.7013C5.88045 41.8867 6.02028 42.0372 6.20014 42.12Z" fill="#2D3361"/>
<path d="M3.46017 48.56C3.55164 48.5999 3.65039 48.6203 3.75017 48.62C3.89767 48.6197 4.0418 48.5759 4.16453 48.4941C4.28726 48.4122 4.38314 48.296 4.44017 48.16L5.23017 46.32C5.27117 46.2283 5.29334 46.1293 5.29534 46.0289C5.29735 45.9284 5.27916 45.8286 5.24185 45.7353C5.20454 45.6421 5.14888 45.5572 5.07816 45.4859C5.00744 45.4146 4.92311 45.3581 4.83017 45.32C4.73868 45.2776 4.63947 45.2542 4.53864 45.2515C4.43781 45.2488 4.33749 45.2667 4.24384 45.3042C4.15019 45.3416 4.06518 45.3979 3.99405 45.4694C3.92291 45.5409 3.86714 45.6262 3.83017 45.72L3.06017 47.58C3.02092 47.6705 3.00015 47.7679 2.99907 47.8665C2.99799 47.9651 3.01663 48.0629 3.0539 48.1542C3.09116 48.2455 3.1463 48.3284 3.21607 48.3981C3.28584 48.4678 3.36883 48.5229 3.46017 48.56Z" fill="#2D3361"/>
<path d="M14.4497 22.81C14.5417 22.8481 14.6401 22.8685 14.7397 22.87C14.8875 22.871 15.0322 22.8277 15.1552 22.7457C15.2782 22.6638 15.3738 22.5468 15.4297 22.41L16.2197 20.57C16.274 20.3916 16.2599 20.1994 16.1802 20.0309C16.1005 19.8623 15.9609 19.7295 15.7885 19.6583C15.6162 19.5871 15.4235 19.5827 15.2481 19.6459C15.0727 19.709 14.9271 19.8353 14.8397 20L14.0497 21.84C13.9789 22.0221 13.981 22.2245 14.0554 22.4051C14.1299 22.5857 14.2711 22.7307 14.4497 22.81Z" fill="#2D3361"/>
<path d="M17.2004 16.37C17.2921 16.4091 17.3907 16.4295 17.4904 16.43C17.6379 16.4297 17.782 16.3859 17.9047 16.304C18.0274 16.2222 18.1233 16.106 18.1804 15.97L19.0004 14.13C19.0628 13.9499 19.0544 13.7528 18.9767 13.5787C18.8991 13.4046 18.7581 13.2667 18.5824 13.1928C18.4067 13.1189 18.2094 13.1148 18.0307 13.1811C17.852 13.2475 17.7053 13.3794 17.6204 13.55L16.8304 15.39C16.752 15.5693 16.7468 15.7722 16.8159 15.9553C16.8851 16.1384 17.023 16.2872 17.2004 16.37Z" fill="#2D3361"/>
</g>
<defs>
<clipPath id="clip0_204_1439">
<rect width="53.13" height="97.96" fill="white" transform="translate(3)"/>
</clipPath>
</defs>
</svg>
