<svg xmlns="http://www.w3.org/2000/svg" width="1278.646" height="522.202" viewBox="0 0 1278.646 522.202"><defs><clipPath id="a"><path transform="rotate(90 639.323 639.323)" fill="none" d="M0 0h522.202v1278.646H0z"/></clipPath></defs><g><g opacity=".075" style="mix-blend-mode:multiply;isolation:isolate" clip-path="url(%23a)"><g><path d="M-27.738 549.899V313.218c0-17.094 14.527-31 32.384-31h173.688c16.705 0 30.295-13.01 30.295-29v-82.654c0-15.99-13.59-29-30.295-29H91.912v34.578c0 17.094-14.527 31-32.384 31H35.875c-17.856 0-32.384-13.906-32.384-31v-5.578c0-17.094 14.528-31 32.384-31h53.949V30.233c0-15.99-13.591-29-30.295-29h-54.7v-2h54.7c17.857 0 32.384 13.906 32.384 31v109.331h86.42c17.857 0 32.384 13.906 32.384 31v82.654c0 17.093-14.527 31-32.384 31H4.645c-16.7 0-30.295 13.009-30.295 29v236.681c0 15.99 13.591 29 30.295 29h210.14V405.786c0-17.094 14.527-31 32.384-31h73.958v-63.024c0-17.093 14.527-31 32.384-31h122.885v-83.749h-65.947c-17.857 0-32.384-13.906-32.384-31v-3.408c0-17.093 14.527-31 32.384-31h35.653c17.856 0 32.384 13.907 32.384 31v32.408h88.994c16.7 0 30.295-13.009 30.295-29V8.172c0-17.094 14.527-31 32.384-31h27.537v-71.954c0-17.094 14.528-31 32.384-31h8c17.857 0 32.384 13.906 32.384 31v71.954h84.45c16.7 0 30.295-13.01 30.295-29V-72.72c0-17.094 14.527-31 32.384-31h46.035c17.857 0 32.384 13.906 32.384 31V90.837c0 15.99 13.591 29 30.295 29h80.586V-85.646h-51.7c-17.857 0-32.384-13.906-32.384-31v-38.565c0-17.093 14.527-31 32.384-31h21.4c17.856 0 32.384 13.907 32.384 31v67.565h166v-66.534h-82.135c-17.857 0-32.384-13.907-32.384-31v-120.907c0-17.093 14.527-31 32.384-31h51.845c17.856 0 32.384 13.907 32.384 31v149.9h68.269v2h-68.269v66.534H1274c17.857 0 32.384 13.906 32.384 31v208.228c0 15.681-12.225 28.681-28.033 30.721v350.361c0 17.094-14.527 31-32.384 31h-154.683c-17.857 0-32.384-13.906-32.384-31V390.413c0-17.094 14.527-31 32.384-31h113.4c16.7 0 30.295-13.01 30.295-29v-147.83h-166v85.339c0 17.093-14.528 31-32.384 31h-82.169c-16.7 0-30.295 13.009-30.295 29V538.59c0 17.093-14.527 31-32.384 31h-18.343c-17.857 0-32.384-13.907-32.384-31V182.582H730.462v69.18c0 17.094-14.527 31-32.384 31h-40.643v63.024c0 17.094-14.528 31-32.384 31H478.485v223.2c0 17.094-14.528 31-32.384 31H247.169c-17.857 0-32.384-13.906-32.384-31v-19.091H4.645c-17.857.004-32.383-13.902-32.383-30.996zM89.824 141.564H35.875c-16.7 0-30.295 13.01-30.295 29v5.578c0 15.991 13.591 29 30.295 29h23.654c16.7 0 30.295-13.009 30.295-29zm127.051 439.335v19.091c0 15.991 13.591 29 30.295 29h198.932c16.7 0 30.295-13.009 30.295-29v-223.2H323.216v173.113c0 17.094-14.527 31-32.384 31zm104.252-204.113h-73.958c-16.7 0-30.295 13.01-30.295 29v173.113h73.958c16.7 0 30.295-13.01 30.295-29zm155.269-94.024H353.51c-16.7 0-30.295 13.009-30.295 29v63.024h153.179zm0-120.159c0-15.991-13.591-29-30.295-29h-35.653c-16.7 0-30.295 13.009-30.295 29v3.408c0 15.991 13.591 29 30.295 29h65.947zm2.089 120.159v92.024H625.05c16.705 0 30.295-13.01 30.295-29v-63.024zm0-85.751v83.751h176.859v-69.18c0-17.094 14.527-31 32.384-31h40.643v-99.8h-38.293c-17.856 0-32.384-13.906-32.384-31v-70.613h-27.532c-16.7 0-30.295 13.009-30.295 29v157.844c0 17.094-14.527 31-32.384 31zm249.886-14.429h-40.643c-16.7 0-30.295 13.01-30.295 29v69.18h40.643c16.7 0 30.295-13.009 30.295-29zm-68.587-203.41v70.613c0 15.99 13.591 29 30.295 29h38.293v-99.613zm68.587-73.954c0-15.991-13.591-29-30.295-29h-8c-16.7 0-30.295 13.009-30.295 29v71.954h68.587zm2.089 175.567v99.8h110.56v-70.8c0-15.99-13.591-29-30.295-29zm0-101.613v99.613h80.266c17.856 0 32.384 13.906 32.384 31v70.8h223.78V121.84h-80.586c-17.857 0-32.384-13.907-32.384-31V-72.72c0-15.991-13.591-29-30.295-29H877.59c-16.7 0-30.295 13.009-30.295 29v20.892c0 17.093-14.528 31-32.384 31zm112.65 203.41v356.007c0 15.99 13.59 29 30.295 29h18.343c16.7 0 30.295-13.01 30.295-29V327.921c0-17.094 14.528-31 32.384-31h82.169c16.7 0 30.295-13.009 30.295-29v-85.339zm223.78-337.793c0-15.991-13.591-29-30.295-29h-21.4c-16.7 0-30.295 13.009-30.295 29v38.565c0 15.991 13.591 29 30.295 29h51.7zm170.182 337.793v147.831c0 17.094-14.528 31-32.384 31h-113.4c-16.7 0-30.295 13.01-30.295 29v142.252c0 15.991 13.591 29 30.295 29h154.674c16.705 0 30.295-13.009 30.295-29V182.507q-1.12.074-2.261.075zm-168.093-60.745v58.745h166v-58.745zm0-207.483v205.483h166V-85.646zm166-220.438c0-15.991-13.591-29-30.295-29h-51.842c-16.7 0-30.295 13.009-30.295 29v120.9c0 15.991 13.591 29 30.295 29h82.139zm2.089 427.921v58.745h36.929c.761 0 1.515-.028 2.261-.08v-29.665c0-15.991-13.59-29-30.295-29zm0-207.483v205.483h8.9c17.857 0 32.384 13.906 32.384 31v29.447c14.651-2.026 25.944-14.126 25.944-28.7v-208.23c0-15.99-13.59-29-30.295-29z" fill="black"/></g><g><path d="M-2.362 584.958v-15h2.089v15zm0-31v-15h2.089v15zm0-31v-15h2.089v15zm0-31v-3.145a29.492 29.492 0 012.507-11.929l1.926.775a27.582 27.582 0 00-2.344 11.154v3.145zm3 109.012l1.893-.843a29.678 29.678 0 009.476 11.124l-1.247 1.6A31.683 31.683 0 01.639 600.97zm10.009-136.957a33.162 33.162 0 0114.8-5.889l.3 1.98a31.016 31.016 0 00-13.834 5.507zm16 154.8l.218-1.988c1.036.1 2.1.156 3.152.156h12.4v2h-12.4a33.7 33.7 0 01-3.365-.175zm15.642-159v-2h15.67v2zm16.848 159.161v-2h15.67v2zm15.536-159.161v-2h15.674v2zm16.848 159.161v-2h5.71a31.278 31.278 0 009.459-1.457l.657 1.9a33.466 33.466 0 01-10.116 1.558zm15.536-159.161v-2h15.67v2zm12.932 147.248a28.644 28.644 0 006.81-12.78l2.039.437a30.646 30.646 0 01-7.278 13.663zm7.537-28.506v-15h2.089v15zm0-31v-15h2.089v15zm0-31v-15h2.089v15zm0-31v-15h2.089v15zm0-31v-15h2.089v15zm0-31v-15h2.089v15zm0-31v-15h2.089v15zm0-31v-15h2.089v15zm0-31v-15h2.089v15zm0-31v-15h2.089v15zm0-31v-4.128a29.515 29.515 0 012.111-10.985l1.952.713a27.6 27.6 0 00-1.974 10.272v4.128zm11.915 191.258v-2h15.67v2zm.256-219.563a33.121 33.121 0 0114.582-6.35l.366 1.969a30.964 30.964 0 00-13.64 5.941zm31.45-4.823v-2h15.67v2zm.678 224.386v-2h15.67v2zm31.706-224.386v-2h15.67v2zm.678 224.386v-2h15.67v2zm31.706-224.386v-2h15.67v2zm.678 224.386v-2h15.67v2zm31.706-224.386v-2h15.67v2zm.678 224.386v-2h15.67v2zm31.706-224.386v-2h15.67v2zm.678 224.386v-2h15.67v2zm31.706-224.386v-2h15.67v2zm.678 224.386v-2h15.67v2zm31.4-223.619l.48-1.947a33.014 33.014 0 0114.192 7.117l-1.4 1.488a30.892 30.892 0 00-13.27-6.658zm.984 223.619v-2h15.67v2zm20.98-204.137l1.991-.608a29.558 29.558 0 011.517 9.359v5.8h-2.089v-5.8a27.64 27.64 0 00-1.419-8.751zm1.419 45.549v-15h2.089v15zm3.889 15.869l1.836-.953a29.941 29.941 0 0010.16 10.559l-1.144 1.674a31.987 31.987 0 01-10.852-11.28zm6.1 142.719v-2h15.67v2zm21-126.431l.09-2c.435.017.872.027 1.31.027h14.315v2h-14.315q-.709.004-1.405-.027zm11.38 126.431v-2h15.67v2zm21.043-126.4v-2h15.67v2zm11.341 126.4v-2h15.67v2zm21.043-126.4v-2h15.67v2zm11.341 126.4v-2h15.67v2zm21.043-126.4v-2h15.67v2zm11.341 126.4v-2h15.67v2zm21.043-126.4v-2h15.67v2zm11.341 126.4v-2h15.67v2zm8.646 171.206v-15h2.089v15zm0-31v-15h2.089v15zm0-31v-15h2.089v15zm0-31v-15h2.089v15zm0-31v-15h2.089v15zm0-31v-15h2.089v15zm0-31v-15h2.089v15zm0-31v-15h2.089v15zm0-31v-15h2.089v15zm0-31v-15h2.089v15zm0-31v-15h2.089v15zm0-31v-15h2.089v15zm0-31v-15h2.089v15zm0-31v-15h2.089v15zm0-31v-15h2.089v15zm0-31v-15h2.089v15zm0-31v-15h2.089v15zm0-31v-15h2.089v15zm0-31V64.34a29.716 29.716 0 01.718-6.481l2.042.42a27.812 27.812 0 00-.671 6.061v8.679zm4.483 573.758l1.8-1.017a30.1 30.1 0 0010.561 10.191l-1.077 1.713a32.131 32.131 0 01-11.285-10.887zm4.107-603.412a32.82 32.82 0 0113.415-8.383l.673 1.893a30.7 30.7 0 00-12.551 7.845zm3.809 290.046v-2h15.67v2zm11.341 126.4v-2h15.67v2zm8.458 202.274v-2h15.67v2zm6.674-626.747v-2h15.67v2zm5.911 298.071v-2h15.67v2zm11.341 126.4v-2h15.67v2zm8.458 202.274v-2h15.67v2zm6.674-626.747v-2h15.67v2zm5.912 298.077v-2h15.67v2zm11.341 126.4v-2h15.67v2zm8.459 202.274v-2h15.67v2zm6.674-626.747v-2h15.67v2zm5.911 298.071v-2h15.67v2zm11.341 126.4v-2h3.946a33.268 33.268 0 0111.833 2.155l-.77 1.859a31.116 31.116 0 00-11.063-2.014zm8.458 202.274v-2h15.67v2zm6.674-626.747v-2h15.67v2zm5.911 298.071v-2h15.67v2zm6.754 137.575l1.645-1.234a30.369 30.369 0 016.459 14.034l-2.06.326a28.416 28.416 0 00-6.048-13.124zm6.443 105.94v-15h2.089v15zm0-31v-15h2.089v15zm0-31v-15h2.089v15zm6.6 147.161v-2h15.67v2zm6.674-626.747v-2h15.67v2zm5.911 298.071v-2h15.67v2zm19.8 328.676v-2h15.67v2zm6.442-626.236l.392-1.965a33.092 33.092 0 0114.492 6.539l-1.33 1.543a30.952 30.952 0 00-13.556-6.115zm6.143 297.56v-2h15.664v2zm16.654-278.978l1.962-.687a29.508 29.508 0 011.96 10.594v4.537h-2.089v-4.537a27.6 27.6 0 00-1.836-9.905zm1.832 665.444v-15h2.089v15zm0-31v-15h2.089v15zm0-31v-15h2.089v15zm0-31v-15h2.089v15zm0-31v-15h2.089v15zm0-31v-15h2.089v15zm0-31v-15h2.089v15zm0-31v-15h2.089v15zm0-31v-15h2.089v15zm0-31v-15h2.089v15zm0-31v-15h2.089v15zm0-31v-15h2.089v15zm0-31v-15h2.089v15zm0-31v-15h2.089v15zm0-31v-15h2.089v15zm0-31v-15h2.089v15zm0-31v-15h2.089v15zm0-31v-15h2.089v15zm0-31v-15h2.089v15zm0-31v-15h2.089v15zm0-31v-15h2.089v15zm1.313 562.21v-2h15.67v2zm12.585-328.676v-2h15.67v2zm19.8 328.676v-2h15.67v2zm12.58-328.672v-2h11.45a31.567 31.567 0 004.064-.262l.282 1.983a33.966 33.966 0 01-4.346.279zm19.8 328.676v-2h15.67v2zm10.4-336.935a29.545 29.545 0 009.121-11.392l1.92.789a31.552 31.552 0 01-9.743 12.171zm11.551-26.667v-15h2.089v15zm0-31v-15h2.089v15zm0-31v-15h2.089v15zm0-31v-15h2.089v15zm0-31v-15h2.089v15zm0-31v-15h2.089v15zm0-31v-15h2.089v15zm0-31v-15h2.089v15zm0-31v-5.742a29.554 29.554 0 011.536-9.412l1.99.611a27.6 27.6 0 00-1.436 8.8v5.742zm10.438 611.6v-2h15.67v2zm.407-640.445a32.984 32.984 0 0114.205-7.091l.475 1.947a30.872 30.872 0 00-13.289 6.635zm31.093-5.9v-2h15.67v2zm.884 646.344v-2h15.67v2zm31.5-646.344v-2h15.67v2zm.884 646.344v-2h15.67v2zm31.5-646.344v-2h14.489c.38 0 .763-.008 1.143-.021l.075 2q-.6.023-1.215.023zm.884 646.344v-2h15.67v2zm1.121-232.846v-6.334h2.089v6.334a27.642 27.642 0 001.258 8.255l-2 .573a29.586 29.586 0 01-1.352-8.827zm0-22.334v-15h2.089v15zm0-31v-15h2.089v15zm0-31v-15h2.089v15zm0-31v-15h2.089v15zm0-31v-15h2.089v15zm0-31v-15h2.089v15zm0-31v-15h2.089v15zm0-31v-15h2.089v15zm0-31v-15h2.089v15zm0-31V117.25a29.693 29.693 0 01.338-4.471l2.067.289a27.9 27.9 0 00-.316 4.182v10.656zm7.2-30.087a32.631 32.631 0 0112.81-9.2l.8 1.846a30.558 30.558 0 00-11.992 8.616zm3.178 354.111l1.422-1.464a30.823 30.823 0 0013.15 6.884l-.516 1.938a32.948 32.948 0 01-14.064-7.357zm18.466-442.809a29.951 29.951 0 0010.222-10.5l1.831.963a31.983 31.983 0 01-10.92 11.221zm2.422 652.965v-2h15.67v2zm5.539-573.836v-2h15.67v2zm4.518 371.99v-2h15.67v2zm1.459-476.515v-15h2.089v15zm0-31v-15h2.089v15zm0-31v-15h2.089v15zm0-31v-15h2.089v15zm0-31v-15h2.089v15zm0-31v-15h2.089v15zm0-31v-15h2.089v15zm4.206-30.812a32.058 32.058 0 0111.088-11.068l1.107 1.7a30.018 30.018 0 00-10.379 10.361zm16.662 895.173v-2h15.67v2zm5.539-573.836v-2h15.67v2zm4.518 371.99v-2h15.67v2zm.713-709.085q.373-.009.746-.009h14.949v2h-14.949q-.35 0-.7.008zm21.614 910.931v-2h15.67v2zm5.539-573.836v-2h15.67v2zm4.518 371.99v-2h15.67v2zm.739-707.094v-2h15.67v2zm21.589 908.94v-2h15.67v2zm5.379-576.112a31.007 31.007 0 0013.855-5.459l1.248 1.6a33.162 33.162 0 01-14.815 5.836zm4.678 374.266v-2h15.67v2zm.269-705.743l.633-1.906a32.86 32.86 0 0113.591 8.122l-1.508 1.384a30.749 30.749 0 00-12.723-7.599zm18.787 314.005a27.589 27.589 0 002.387-11.252v-3.037h2.089v3.035a29.5 29.5 0 01-2.552 12.033zm1.582-292.993l2.032-.46a29.58 29.58 0 01.863 7.1v8.064h-2.089v-8.069a27.746 27.746 0 00-.816-6.631zm.805 262.706v-15h2.089v15zm0-31v-15h2.089v15zm0-31v-15h2.089v15zm0-31v-15h2.089v15zm0-31v-15h2.089v15zm0-31v-15h2.089v15zm0-31v-15h2.089v15zm0-31v-15h2.089v15zm.885 840.871v-2h15.67v2zm10.057-201.846v-2h9.039a33.728 33.728 0 016.8.692l-.441 1.955a31.536 31.536 0 00-6.359-.647zm21.493 197.267a30.5 30.5 0 0011.7-8.974l1.665 1.208a32.571 32.571 0 01-12.5 9.586zm8.06-189.557l1.418-1.469a31.176 31.176 0 018.746 12.849l-1.979.644a29.148 29.148 0 00-8.195-12.023zm9.588 166.406a27.7 27.7 0 00.193-3.27v-11.609h2.089v11.609a29.652 29.652 0 01-.206 3.495zm.193-30.879v-15h2.089v15zm0-31v-15h2.089v15zm0-31v-15h2.089v15zm0-31v-15h2.089v15z" fill="black"/></g><g><ellipse cx="14.595" cy="13.972" rx="14.595" ry="13.972" fill="black" transform="translate(129.228 127.231)"/></g><g><ellipse cx="14.595" cy="13.972" rx="14.595" ry="13.972" fill="black" transform="translate(462.945 222.04)"/></g><g><ellipse cx="11.134" cy="10.658" rx="11.134" ry="10.658" fill="black" transform="translate(655.126 448.134)"/></g><g><ellipse cx="11.134" cy="10.658" rx="11.134" ry="10.658" fill="black" transform="translate(957.079 284.115)"/></g><g><ellipse cx="11.134" cy="10.658" rx="11.134" ry="10.658" fill="black" transform="translate(309.861 364.671)"/></g><g><ellipse cx="11.134" cy="10.658" rx="11.134" ry="10.658" fill="black" transform="translate(718.628 -79.998)"/></g><g><ellipse cx="14.597" cy="13.973" rx="14.597" ry="13.973" fill="black" transform="translate(1002.06 168.26)"/></g><g><ellipse cx="11.134" cy="10.658" rx="11.134" ry="10.658" fill="black" transform="translate(1076.605 -258.511)"/></g><g><ellipse cx="14.595" cy="13.972" rx="14.595" ry="13.972" fill="black" transform="translate(826.568 317.479)"/></g></g></g></svg>