<svg width="61" height="68" viewBox="0 0 61 68" fill="none" xmlns="http://www.w3.org/2000/svg">
<path opacity="0.5" d="M30.0598 64.1484C46.6614 64.1484 60.1197 50.6837 60.1197 34.0742C60.1197 17.4647 46.6614 4 30.0598 4C13.4583 4 0 17.4647 0 34.0742C0 50.6837 13.4583 64.1484 30.0598 64.1484Z" fill="#A8CFEE"/>
<g clip-path="url(#clip0_204_1438)">
<path d="M5.67998 53.37C6.59778 53.3712 7.50152 53.1445 8.30998 52.71L9.91998 53.65C10.0314 53.7176 10.1597 53.7523 10.29 53.75C10.4557 53.7513 10.6171 53.6977 10.7491 53.5976C10.8811 53.4974 10.9763 53.3564 11.0197 53.1965C11.0631 53.0366 11.0523 52.8668 10.989 52.7137C10.9258 52.5605 10.8136 52.4326 10.67 52.35L9.66998 51.75C9.98017 51.4487 10.2553 51.1132 10.49 50.75L24.97 59.2C24.4972 60.0629 24.2583 61.0344 24.2771 62.0182C24.296 63.0019 24.5718 63.9636 25.0773 64.8077C25.5828 65.6519 26.3003 66.3491 27.1586 66.8302C28.0169 67.3112 28.9861 67.5594 29.97 67.55C31.4354 67.551 32.8441 66.9836 33.8997 65.9671C34.9554 64.9507 35.5756 63.5644 35.63 62.1L37.27 61.17C37.3553 61.1208 37.4302 61.0552 37.4902 60.977C37.5502 60.8988 37.5942 60.8096 37.6198 60.7145C37.6453 60.6193 37.6518 60.52 37.639 60.4223C37.6262 60.3246 37.5942 60.2304 37.545 60.145C37.4957 60.0596 37.4302 59.9848 37.352 59.9248C37.2738 59.8648 37.1846 59.8207 37.0894 59.7952C36.9943 59.7697 36.895 59.7631 36.7973 59.776C36.6996 59.7888 36.6053 59.8208 36.52 59.87L35.46 60.48C35.3544 60.0473 35.2001 59.6279 35 59.23L49.56 50.92C50.0617 51.7286 50.7589 52.3979 51.5872 52.8662C52.4156 53.3346 53.3485 53.5869 54.3 53.6C55.7961 53.6054 57.234 53.0203 58.3012 51.9718C59.3685 50.9233 59.9789 49.496 60 48C60.0042 47.258 59.8615 46.5225 59.58 45.836C59.2985 45.1495 58.8839 44.5255 58.36 44C58.0561 43.6984 57.7209 43.4302 57.36 43.2C57.36 43.2 57.36 43.14 57.36 43.1V41C57.3574 40.8019 57.2775 40.6126 57.1374 40.4725C56.9974 40.3324 56.8081 40.2526 56.61 40.25C56.512 40.2487 56.4147 40.2668 56.3237 40.3034C56.2328 40.34 56.15 40.3943 56.0802 40.4632C56.0105 40.532 55.9551 40.614 55.9173 40.7045C55.8794 40.7949 55.86 40.892 55.86 40.99V42.45C55.4396 42.33 55.0067 42.2595 54.57 42.24L54.65 25.48C56.1163 25.4309 57.5068 24.8164 58.5302 23.765C59.5536 22.7137 60.1305 21.3071 60.14 19.84C60.1439 19.0941 60.0009 18.3547 59.7191 17.6641C59.4373 16.9734 59.0222 16.345 58.4976 15.8148C57.9729 15.2846 57.349 14.8629 56.6614 14.5738C55.9737 14.2847 55.2359 14.1339 54.49 14.13C53.5708 14.1518 52.6684 14.3809 51.85 14.8L50.22 13.85C50.0511 13.7552 49.8518 13.7304 49.6649 13.7809C49.4779 13.8313 49.3182 13.9531 49.22 14.12C49.1278 14.2894 49.1043 14.4879 49.1546 14.6741C49.2049 14.8603 49.325 15.02 49.49 15.12L50.49 15.72C50.191 16.021 49.9292 16.3568 49.71 16.72L35.21 8.35C35.6507 7.53993 35.8811 6.6322 35.88 5.71C35.8837 4.96809 35.7407 4.23277 35.4592 3.54631C35.1778 2.85985 34.7634 2.23579 34.24 1.71C33.1808 0.643708 31.7429 0.0397555 30.24 0.0299959C29.4972 0.0201452 28.7601 0.160319 28.0728 0.44212C27.3854 0.723921 26.7621 1.14155 26.24 1.67C25.2225 2.67875 24.6287 4.03803 24.58 5.47L22.95 6.4C22.8064 6.48265 22.6942 6.61053 22.6309 6.76366C22.5677 6.9168 22.5569 7.08658 22.6003 7.24648C22.6437 7.40639 22.7388 7.54742 22.8708 7.64755C23.0028 7.74769 23.1643 7.80129 23.33 7.8C23.46 7.79974 23.5876 7.76524 23.7 7.7L24.7 7.11C24.8051 7.53324 24.9595 7.9427 25.16 8.33L10.63 16.61C10.1235 15.7937 9.41869 15.119 8.58113 14.6486C7.74356 14.1783 6.80055 13.9276 5.83998 13.92C4.61166 13.9239 3.41783 14.3266 2.43809 15.0675C1.45836 15.8084 0.745709 16.8474 0.407368 18.0282C0.0690274 19.209 0.123291 20.4677 0.561996 21.615C1.0007 22.7624 1.80012 23.7362 2.83998 24.39V26.19C2.84257 26.3881 2.92242 26.5774 3.06251 26.7175C3.20261 26.8576 3.39187 26.9374 3.58998 26.94C3.688 26.9413 3.7853 26.9232 3.87624 26.8866C3.96718 26.85 4.04994 26.7957 4.11971 26.7268C4.18949 26.658 4.2449 26.576 4.28271 26.4855C4.32052 26.3951 4.33999 26.298 4.33998 26.2V25.06C4.76015 25.1808 5.19318 25.2513 5.62998 25.27L5.48998 42C3.9862 42.0212 2.55244 42.6389 1.50412 43.7173C0.455787 44.7956 -0.121238 46.2462 -0.100021 47.75C-0.0788035 49.2538 0.538918 50.6875 1.61725 51.7359C2.69559 52.7842 4.1462 53.3612 5.64998 53.34L5.67998 53.37ZM7.56998 25C8.41085 24.734 9.17791 24.2751 9.80998 23.66C9.92998 23.54 10.01 23.41 10.12 23.29L24.75 31.84C24.5192 32.4542 24.3974 33.1039 24.39 33.76C24.3913 34.414 24.5029 35.0631 24.72 35.68L9.99998 44.05C9.3286 43.2484 8.44999 42.6465 7.45998 42.31L7.56998 25ZM52.65 25.24L52.56 42.54C51.7205 42.8175 50.957 43.2865 50.33 43.91C50.21 44.02 50.13 44.16 50.02 44.28L35.39 35.71C35.616 35.0945 35.7377 34.4456 35.75 33.79C35.746 33.1345 35.6275 32.4847 35.4 31.87L50.11 23.48C50.7814 24.2816 51.66 24.8835 52.65 25.22V25.24ZM11 45.79L25.7 37.4C26.5379 38.4142 27.7062 39.101 29 39.34V56.26C27.9589 56.4334 26.9881 56.8979 26.2 57.6L11.2 48.86C11.2789 48.4849 11.3224 48.1032 11.33 47.72C11.3346 47.0622 11.2229 46.4089 11 45.79ZM48.63 49.11L33.71 57.64C32.9486 56.9446 32.0114 56.4708 31 56.27V39.35C32.1356 39.1543 33.1833 38.613 34 37.8C34.1115 37.6838 34.2151 37.5602 34.31 37.43L49 46C48.6147 46.983 48.5277 48.0578 48.75 49.09L48.63 49.11ZM49.1 21.74L34.4 30.14C34.3086 30.0099 34.2083 29.8863 34.1 29.77C33.2901 28.9422 32.2408 28.3895 31.1 28.19L31.18 11.27C32.2262 11.094 33.2027 10.63 34 9.93L49 18.66C48.7717 19.6854 48.8446 20.755 49.21 21.74H49.1ZM26.42 9.9C27.1967 10.5995 28.152 11.0702 29.18 11.26L29.1 28.18C27.9658 28.38 26.9193 28.9206 26.1 29.73C25.9922 29.8468 25.892 29.9704 25.8 30.1L11.13 21.55C11.3607 20.9358 11.4826 20.2861 11.49 19.63C11.499 19.2437 11.4621 18.8576 11.38 18.48L26.42 9.9Z" fill="#2D3361"/>
<path d="M57.4397 27C57.4371 26.8019 57.3573 26.6126 57.2172 26.4725C57.0771 26.3324 56.8878 26.2526 56.6897 26.25C56.5917 26.2487 56.4944 26.2668 56.4035 26.3034C56.3125 26.34 56.2298 26.3943 56.16 26.4632C56.0902 26.532 56.0348 26.6141 55.997 26.7045C55.9592 26.7949 55.9397 26.892 55.9397 26.99V28.99C55.9371 29.0889 55.9542 29.1872 55.9902 29.2793C56.0262 29.3714 56.0803 29.4554 56.1493 29.5262C56.2182 29.5971 56.3007 29.6534 56.3918 29.6918C56.483 29.7303 56.5808 29.75 56.6797 29.75C56.8778 29.7474 57.0671 29.6676 57.2072 29.5275C57.3473 29.3874 57.4271 29.1981 57.4297 29L57.4397 27Z" fill="#2D3361"/>
<path d="M56.6497 33.28C56.551 33.2758 56.4524 33.2921 56.3602 33.3276C56.268 33.3632 56.1841 33.4174 56.1137 33.4868C56.0434 33.5563 55.9881 33.6394 55.9512 33.7311C55.9144 33.8229 55.8969 33.9212 55.8997 34.02V36.02C55.8984 36.1193 55.9168 36.2179 55.9539 36.3101C55.991 36.4022 56.046 36.4861 56.1158 36.5568C56.1856 36.6275 56.2687 36.6837 56.3604 36.722C56.452 36.7603 56.5504 36.78 56.6497 36.78C56.8478 36.7774 57.0371 36.6976 57.1772 36.5575C57.3173 36.4174 57.3971 36.2281 57.3997 36.03V34C57.392 33.8063 57.3095 33.6232 57.1697 33.489C57.0299 33.3547 56.8435 33.2798 56.6497 33.28Z" fill="#2D3361"/>
<path d="M49.6603 53.19C49.5638 53.0214 49.4048 52.8975 49.2177 52.8451C49.0306 52.7927 48.8304 52.816 48.6603 52.91L46.9303 53.91C46.8371 53.9542 46.754 54.0172 46.6863 54.0951C46.6185 54.1729 46.5676 54.2639 46.5366 54.3623C46.5056 54.4607 46.4952 54.5644 46.5062 54.667C46.5171 54.7696 46.5491 54.8689 46.6002 54.9586C46.6512 55.0482 46.7202 55.1264 46.8028 55.1882C46.8855 55.25 46.98 55.2941 47.0804 55.3177C47.1809 55.3413 47.2851 55.3439 47.3866 55.3253C47.4881 55.3068 47.5847 55.2676 47.6703 55.21L49.4103 54.21C49.5772 54.1065 49.6969 53.9418 49.7437 53.7511C49.7904 53.5603 49.7605 53.3589 49.6603 53.19Z" fill="#2D3361"/>
<path d="M43.59 56.66C43.4917 56.4933 43.3327 56.3711 43.1463 56.3189C42.96 56.2667 42.7606 56.2886 42.59 56.38L40.86 57.38C40.7668 57.4242 40.6837 57.4872 40.616 57.5651C40.5482 57.6429 40.4973 57.7338 40.4663 57.8323C40.4353 57.9307 40.4249 58.0344 40.4359 58.137C40.4468 58.2396 40.4788 58.3389 40.5298 58.4285C40.5809 58.5182 40.6499 58.5964 40.7325 58.6582C40.8152 58.72 40.9097 58.764 41.0101 58.7876C41.1105 58.8112 41.2148 58.8139 41.3163 58.7953C41.4178 58.7768 41.5144 58.7375 41.6 58.68L43.34 57.68C43.5069 57.5765 43.6266 57.4118 43.6733 57.221C43.7201 57.0303 43.6902 56.8289 43.59 56.66Z" fill="#2D3361"/>
<path d="M23.0001 60.44C23.0923 60.2706 23.1158 60.0721 23.0655 59.8859C23.0152 59.6997 22.8951 59.54 22.7301 59.44L21.0001 58.4C20.9148 58.3501 20.8204 58.3175 20.7224 58.304C20.6245 58.2906 20.5248 58.2966 20.4292 58.3217C20.3336 58.3467 20.2438 58.3904 20.165 58.4502C20.0862 58.5099 20.02 58.5846 19.9701 58.67C19.9202 58.7553 19.8876 58.8497 19.8742 58.9477C19.8607 59.0456 19.8667 59.1453 19.8918 59.2409C19.9169 59.3365 19.9605 59.4263 20.0203 59.5051C20.0801 59.5839 20.1548 59.6501 20.2401 59.7L21.9701 60.7C22.0834 60.7632 22.2104 60.7975 22.3401 60.8C22.4721 60.8034 22.6026 60.7719 22.7185 60.7087C22.8344 60.6454 22.9315 60.5528 23.0001 60.44Z" fill="#2D3361"/>
<path d="M16.9999 56.91C17.0922 56.7406 17.1156 56.5421 17.0653 56.3559C17.015 56.1697 16.8949 56.01 16.7299 55.91L14.9999 54.91C14.8305 54.8178 14.6321 54.7944 14.4458 54.8447C14.2596 54.8949 14.0999 55.015 13.9999 55.18C13.9125 55.3504 13.8917 55.5473 13.9417 55.7322C13.9916 55.9171 14.1086 56.0768 14.2699 56.18L15.9999 57.18C16.1699 57.2698 16.3675 57.2918 16.5531 57.2418C16.7386 57.1917 16.8983 57.0731 16.9999 56.91Z" fill="#2D3361"/>
<path d="M2.7002 40.19C2.70279 40.3881 2.78263 40.5774 2.92273 40.7175C3.06282 40.8576 3.25209 40.9374 3.4502 40.94C3.54821 40.9413 3.64551 40.9232 3.73645 40.8866C3.82739 40.85 3.91015 40.7957 3.97993 40.7268C4.04971 40.658 4.10511 40.576 4.14293 40.4855C4.18074 40.3951 4.2002 40.298 4.2002 40.2V38.2C4.20287 38.1012 4.1857 38.0028 4.14971 37.9107C4.11372 37.8186 4.05964 37.7346 3.99065 37.6638C3.92167 37.5929 3.83919 37.5366 3.74808 37.4982C3.65697 37.4598 3.55908 37.44 3.4602 37.44C3.26209 37.4426 3.07282 37.5224 2.93273 37.6625C2.79263 37.8026 2.71279 37.9919 2.7102 38.19L2.7002 40.19Z" fill="#2D3361"/>
<path d="M3.49023 33.94C3.68743 33.94 3.87669 33.8624 4.01706 33.7239C4.15743 33.5854 4.2376 33.3972 4.24023 33.2V31.2C4.24156 31.1007 4.22314 31.0021 4.18604 30.9099C4.14894 30.8178 4.09391 30.7339 4.02413 30.6632C3.95436 30.5925 3.87123 30.5363 3.77958 30.498C3.68792 30.4597 3.58957 30.44 3.49023 30.44C3.29132 30.44 3.10056 30.519 2.9599 30.6597C2.81925 30.8003 2.74023 30.9911 2.74023 31.19V33.19C2.74023 33.3889 2.81925 33.5797 2.9599 33.7203C3.10056 33.861 3.29132 33.94 3.49023 33.94Z" fill="#2D3361"/>
<path d="M11.1397 14.71C11.2697 14.7098 11.3973 14.6753 11.5097 14.61L13.2497 13.61C13.3351 13.5608 13.4099 13.4952 13.4699 13.417C13.5299 13.3389 13.574 13.2496 13.5995 13.1545C13.6251 13.0593 13.6316 12.96 13.6188 12.8623C13.6059 12.7646 13.574 12.6704 13.5247 12.585C13.4755 12.4997 13.4099 12.4248 13.3317 12.3648C13.2536 12.3048 13.1644 12.2608 13.0692 12.2352C12.974 12.2097 12.8747 12.2032 12.777 12.216C12.6793 12.2288 12.5851 12.2608 12.4997 12.31L10.7697 13.31C10.6011 13.4066 10.4773 13.5656 10.4249 13.7526C10.3725 13.9397 10.3958 14.1399 10.4897 14.31C10.5497 14.4309 10.6424 14.5325 10.7574 14.6032C10.8723 14.6739 11.0048 14.711 11.1397 14.71Z" fill="#2D3361"/>
<path d="M17.2197 11.24C17.3497 11.2397 17.4773 11.2053 17.5897 11.14L19.3197 10.14C19.413 10.0958 19.496 10.0328 19.5638 9.95493C19.6315 9.87711 19.6825 9.78615 19.7135 9.68773C19.7445 9.58931 19.7548 9.48556 19.7439 9.38295C19.733 9.28035 19.701 9.18111 19.6499 9.09144C19.5989 9.00177 19.5299 8.92359 19.4472 8.8618C19.3646 8.80002 19.2701 8.75594 19.1697 8.73234C19.0692 8.70874 18.965 8.70612 18.8635 8.72465C18.762 8.74318 18.6654 8.78245 18.5797 8.84001L16.8397 9.84001C16.6961 9.92266 16.5839 10.0505 16.5207 10.2037C16.4574 10.3568 16.4467 10.5266 16.4901 10.6865C16.5335 10.8464 16.6286 10.9874 16.7606 11.0876C16.8926 11.1877 17.0541 11.2413 17.2197 11.24Z" fill="#2D3361"/>
<path d="M43.4203 11.65L45.1503 12.65C45.265 12.7196 45.3961 12.7575 45.5303 12.76C45.6959 12.7613 45.8574 12.7077 45.9894 12.6075C46.1214 12.5074 46.2165 12.3664 46.26 12.2065C46.3034 12.0466 46.2926 11.8768 46.2293 11.7237C46.1661 11.5705 46.0539 11.4426 45.9103 11.36L44.1803 10.36C44.0108 10.2678 43.8124 10.2444 43.6262 10.2946C43.4399 10.3449 43.2802 10.465 43.1803 10.63C43.0817 10.7983 43.0517 10.9981 43.0964 11.188C43.1411 11.3778 43.257 11.5433 43.4203 11.65Z" fill="#2D3361"/>
<path d="M37.3804 8.12L39.1104 9.12C39.221 9.19062 39.3492 9.22874 39.4804 9.23C39.6113 9.22865 39.7396 9.19396 39.8533 9.12923C39.9671 9.06449 40.0624 8.97183 40.1304 8.86C40.2226 8.69058 40.246 8.49214 40.1958 8.30591C40.1455 8.11968 40.0254 7.95998 39.8604 7.86L38.1304 6.86C37.9615 6.76521 37.7622 6.7404 37.5753 6.79087C37.3883 6.84135 37.2286 6.9631 37.1304 7.13C37.0394 7.29609 37.0145 7.49048 37.0609 7.67412C37.1073 7.85776 37.2214 8.01705 37.3804 8.12Z" fill="#2D3361"/>
</g>
<defs>
<clipPath id="clip0_204_1438">
<rect width="60.14" height="67.53" fill="white"/>
</clipPath>
</defs>
</svg>
