<svg id="Logos" xmlns="http://www.w3.org/2000/svg" viewBox="0 0 282.98 275.72"><defs><style>.cls-1{fill:#f3702d;}</style></defs><path class="cls-1" d="M141.29,14.09a123.77,123.77,0,1,0,124,123.57A123.77,123.77,0,0,0,141.29,14.09ZM152.65,198.4a7.19,7.19,0,0,1-4.54,1.61,7.28,7.28,0,0,1-5.66-2.69l-4.53-5.61L75.61,118.36h-.16l.11,76.49c0,1.61-.2,5.28-4.78,5.25H64.31a5.05,5.05,0,0,1-5.05-5L59.1,94.49V90.32c0-4.91,6.85-4.89,7.19-4.89A8.5,8.5,0,0,1,72,87.65c1.2.93,81.73,100.54,81.73,100.54A7.26,7.26,0,0,1,152.65,198.4Zm34.16-7.28-3.21,7.06a3.07,3.07,0,0,1-2.74,1.78h-1.62a3.29,3.29,0,0,1-2.75-1.77L127.06,89.56a2.84,2.84,0,0,1,2.73-4.2l11.47,0A3.17,3.17,0,0,1,144,87.11L179.68,167l7.16,16.13A9.74,9.74,0,0,1,186.81,191.12Zm21-38a10.2,10.2,0,0,1-13.14,5.33,9.85,9.85,0,1,1,13.14-5.33Zm11.78-27.08a10.2,10.2,0,0,1-13.14,5.33,9.85,9.85,0,1,1,13.14-5.33Zm-2.54-21.65a9.86,9.86,0,1,1,13.14-5.33A10.2,10.2,0,0,1,217.06,104.44Z"/></svg>