<svg id="Logos" xmlns="http://www.w3.org/2000/svg" viewBox="0 0 480.56 181.95"><defs><style>.cls-1{fill:#fff;}</style></defs><path class="cls-1" d="M96.74,9.91a78.55,78.55,0,1,0,78.67,78.42A78.54,78.54,0,0,0,96.74,9.91Zm7.21,117a4.59,4.59,0,0,1-6.47-.68l-2.88-3.56L55.06,76.09H55L55,124.62c0,1-.13,3.35-3,3.34H47.89a3.2,3.2,0,0,1-3.2-3.19l-.11-63.84V58.29c0-3.11,4.34-3.1,4.56-3.1a5.33,5.33,0,0,1,3.63,1.4c.76.59,51.87,63.81,51.87,63.81A4.59,4.59,0,0,1,104,126.87Zm21.68-4.62-2,4.48a1.94,1.94,0,0,1-1.74,1.13h-1a2.09,2.09,0,0,1-1.75-1.13L87.71,57.81a1.81,1.81,0,0,1,1.74-2.67h7.28a2,2,0,0,1,1.74,1.12L121.1,107l4.55,10.23A6.16,6.16,0,0,1,125.63,122.25ZM139,98.18a6.47,6.47,0,0,1-8.34,3.37A6.25,6.25,0,1,1,139,98.18ZM146.44,81a6.47,6.47,0,0,1-8.34,3.38A6.25,6.25,0,1,1,146.44,81Zm-1.62-13.74a6.26,6.26,0,1,1,8.34-3.38A6.47,6.47,0,0,1,144.82,67.25Z"/><path class="cls-1" d="M250.43,53.12c-.73-2.17.48-3.63,2.29-3.63h5.08a3.61,3.61,0,0,1,3.75,2.79l11,34.1c1.21,3.75,2.42,9.08,3.63,14,1.09-5,2.42-10.28,3.63-14l11-34.1a3.89,3.89,0,0,1,3.75-2.79h5.08c2.06,0,3,1.21,2.3,3.63l-18.38,55.4a4.35,4.35,0,0,1-4,3.26H272.8a4.21,4.21,0,0,1-4-3.14Z"/><path class="cls-1" d="M317,49.49h5.08a3,3,0,0,1,3,3v56.24a3,3,0,0,1-3,3H317a3,3,0,0,1-3-3V52.52A3,3,0,0,1,317,49.49Z"/><path class="cls-1" d="M338.67,103.56c.36-1.82,1.93-2.42,3.87-1.94a49.25,49.25,0,0,0,12.82,1.94c6.77,0,11.24-3.51,11.24-8.35,0-13.66-27.93-8.34-27.93-29.87,0-10,7.86-17.42,20.8-17.42a51.39,51.39,0,0,1,13.06,1.82,3.08,3.08,0,0,1,2.3,3.87l-1.09,3.75c-.48,1.81-1.81,2.42-3.75,1.93a38.53,38.53,0,0,0-10.52-1.57c-6.65,0-9.56,3.27-9.56,7.62,0,12.7,27.94,7.5,27.94,29.63,0,9.07-7.13,18.38-22.49,18.38a53.25,53.25,0,0,1-15.24-2.29,3.19,3.19,0,0,1-2.3-3.75Z"/><path class="cls-1" d="M393.09,49.49h5.08a3,3,0,0,1,3,3v56.24a3,3,0,0,1-3,3h-5.08a3,3,0,0,1-3-3V52.52A3,3,0,0,1,393.09,49.49Z"/><path class="cls-1" d="M219.73,47.92a25,25,0,0,0-13,3.48,3,3,0,0,0-2.95-2.47h-5.08a3,3,0,0,0-3,3v56.83a2.86,2.86,0,0,0,3,3h5.08a2.86,2.86,0,0,0,3-3v-35c0-10.76,5.32-16.08,12.94-16.08S232.55,63,232.55,73.8v35a2.86,2.86,0,0,0,3,3h5.07a2.86,2.86,0,0,0,3-3V73.2C243.68,56.75,233,47.92,219.73,47.92Z"/><path class="cls-1" d="M436.63,47.92a58.52,58.52,0,0,0-15.73,2.42c-2,.61-2.78,2.06-2.29,4.12l.72,1.86c.61,2,1.69,2.9,3.63,2.41a52.94,52.94,0,0,1,13.67-2c7.86,0,12,4.72,12,13.18v3.39H436.39c-13.43,0-22.62,6.65-22.62,18.87,0,11.37,9.92,19.15,23.1,19.15A25.22,25.22,0,0,0,448.61,108a3,3,0,0,0,3,2.87h5a3,3,0,0,0,3-3v-38C459.61,55.59,450.54,47.92,436.63,47.92Zm.24,54.6c-7.38,0-11.73-5.08-11.73-10.53s3.26-10,11.25-10H448.6V92.12C448.6,97.68,443.88,102.52,436.87,102.52Z"/><circle class="cls-1" cx="395.34" cy="36.4" r="6.63"/><circle class="cls-1" cx="319.96" cy="36.4" r="6.63"/><path class="cls-1" d="M194.62,134.4a9.08,9.08,0,0,1,.5-3.1,6.69,6.69,0,0,1,1.41-2.34,6.14,6.14,0,0,1,2.17-1.47,7.37,7.37,0,0,1,2.79-.51,6.77,6.77,0,0,1,1.07.08,5.42,5.42,0,0,1,.86.21,3.29,3.29,0,0,1,.62.27,2.19,2.19,0,0,1,.38.3,1.1,1.1,0,0,1,.29.42,1.45,1.45,0,0,1,.09.54,1.07,1.07,0,0,1-.07.41,1.21,1.21,0,0,1-.2.33.85.85,0,0,1-.31.21.91.91,0,0,1-.41.08,1.12,1.12,0,0,1-.45-.08l-.49-.18a5,5,0,0,0-.64-.19,3.9,3.9,0,0,0-.9-.09,3.37,3.37,0,0,0-1.45.31,3.24,3.24,0,0,0-1.19.9,4.31,4.31,0,0,0-.79,1.49,6.74,6.74,0,0,0-.29,2.06,5.71,5.71,0,0,0,.29,1.88,4.21,4.21,0,0,0,.81,1.39,3.46,3.46,0,0,0,1.23.86,4.08,4.08,0,0,0,1.58.3,4.12,4.12,0,0,0,.93-.08,5.27,5.27,0,0,0,.64-.17l.48-.18a1,1,0,0,1,.4-.08.92.92,0,0,1,.38.07.79.79,0,0,1,.27.2.92.92,0,0,1,.18.3,1.16,1.16,0,0,1,.07.37,1.1,1.1,0,0,1-.11.49,1.44,1.44,0,0,1-.3.41,2.07,2.07,0,0,1-.5.39,3.87,3.87,0,0,1-.76.31,7.84,7.84,0,0,1-1,.22,8.11,8.11,0,0,1-1.26.09,7.06,7.06,0,0,1-2.58-.45,5.61,5.61,0,0,1-2-1.29,6.05,6.05,0,0,1-1.28-2A7.44,7.44,0,0,1,194.62,134.4Z"/><path class="cls-1" d="M206.56,134.13a8.9,8.9,0,0,1,.48-3,6.18,6.18,0,0,1,1.38-2.25,5.85,5.85,0,0,1,2.15-1.4,7.66,7.66,0,0,1,2.82-.49,6.94,6.94,0,0,1,2.62.48,5.73,5.73,0,0,1,2.05,1.35,6.17,6.17,0,0,1,1.33,2.11,7.6,7.6,0,0,1,.48,2.75,8.66,8.66,0,0,1-.49,3,6.28,6.28,0,0,1-1.36,2.25,5.87,5.87,0,0,1-2.15,1.41,7.85,7.85,0,0,1-2.81.48,7,7,0,0,1-2.64-.48,5.73,5.73,0,0,1-2-1.35,6,6,0,0,1-1.33-2.11A7.52,7.52,0,0,1,206.56,134.13Zm3-.26a6.4,6.4,0,0,0,.28,2,4.36,4.36,0,0,0,.78,1.45,3.37,3.37,0,0,0,2.63,1.19,3.62,3.62,0,0,0,1.43-.29,3,3,0,0,0,1.15-.87,4.2,4.2,0,0,0,.77-1.44,6.61,6.61,0,0,0,.27-2,6.09,6.09,0,0,0-.29-2,4.17,4.17,0,0,0-.79-1.46,3.44,3.44,0,0,0-1.16-.89,3.51,3.51,0,0,0-1.44-.3,3.44,3.44,0,0,0-1.44.3,3.14,3.14,0,0,0-1.16.87,4,4,0,0,0-.76,1.43A6.61,6.61,0,0,0,209.56,133.87Z"/><path class="cls-1" d="M223,128.32a1.1,1.1,0,0,1,1.21-1.22,1.6,1.6,0,0,1,.51.08.94.94,0,0,1,.39.22,1,1,0,0,1,.26.36,1.76,1.76,0,0,1,.13.49l.12.81h.05a4.41,4.41,0,0,1,1-1.05,4.34,4.34,0,0,1,.57-.38,6,6,0,0,1,.72-.33,5.13,5.13,0,0,1,.86-.23,5.42,5.42,0,0,1,1-.09,6,6,0,0,1,2.09.35,4.14,4.14,0,0,1,1.57,1,4.56,4.56,0,0,1,1,1.7,7.32,7.32,0,0,1,.34,2.35v6.92a1.28,1.28,0,0,1-.36,1,1.95,1.95,0,0,1-2.2,0,1.28,1.28,0,0,1-.37-1v-6.53a6,6,0,0,0-.18-1.56,2.78,2.78,0,0,0-.55-1.07,2.23,2.23,0,0,0-.88-.63,3.36,3.36,0,0,0-1.18-.2,2.5,2.5,0,0,0-.74.1,3.61,3.61,0,0,0-.65.24,3.52,3.52,0,0,0-.54.33c-.17.13-.31.26-.45.39a4.82,4.82,0,0,0-.79,1.05v7.88a1.28,1.28,0,0,1-.36,1,1.95,1.95,0,0,1-2.2,0,1.28,1.28,0,0,1-.36-1Z"/><path class="cls-1" d="M238.65,128.32a1.1,1.1,0,0,1,1.21-1.22,1.6,1.6,0,0,1,.51.08.94.94,0,0,1,.39.22,1,1,0,0,1,.26.36,1.76,1.76,0,0,1,.13.49l.12.81h0a4.41,4.41,0,0,1,1-1.05,5.13,5.13,0,0,1,.57-.38,6,6,0,0,1,.72-.33,5.13,5.13,0,0,1,.86-.23,5.42,5.42,0,0,1,1-.09,6,6,0,0,1,2.09.35,4.14,4.14,0,0,1,1.57,1,4.56,4.56,0,0,1,1,1.7,7.32,7.32,0,0,1,.34,2.35v6.92a1.28,1.28,0,0,1-.36,1,1.95,1.95,0,0,1-2.2,0,1.28,1.28,0,0,1-.37-1v-6.53a6,6,0,0,0-.18-1.56,2.78,2.78,0,0,0-.55-1.07,2.23,2.23,0,0,0-.88-.63,3.36,3.36,0,0,0-1.18-.2,2.5,2.5,0,0,0-.74.1,3.61,3.61,0,0,0-.65.24,3.52,3.52,0,0,0-.54.33,4.34,4.34,0,0,0-.44.39,4.56,4.56,0,0,0-.8,1.05v7.88a1.28,1.28,0,0,1-.36,1,1.95,1.95,0,0,1-2.2,0,1.28,1.28,0,0,1-.36-1Z"/><path class="cls-1" d="M256.35,134.37v.07a5.24,5.24,0,0,0,.36,1.71,3.73,3.73,0,0,0,.83,1.27,3.38,3.38,0,0,0,1.27.79,4.78,4.78,0,0,0,1.64.27,6.34,6.34,0,0,0,1.24-.1c.34-.07.64-.15.89-.22l.65-.22a1.41,1.41,0,0,1,.52-.1.75.75,0,0,1,.37.08,1,1,0,0,1,.29.2.79.79,0,0,1,.18.29,1,1,0,0,1,.06.36,1.16,1.16,0,0,1-.1.47,1.33,1.33,0,0,1-.29.42,2.54,2.54,0,0,1-.55.39,5.35,5.35,0,0,1-.91.37,8.44,8.44,0,0,1-1.26.29,11,11,0,0,1-1.59.11,7.74,7.74,0,0,1-2.71-.45,5.7,5.7,0,0,1-2.06-1.3,5.84,5.84,0,0,1-1.3-2,7.42,7.42,0,0,1-.46-2.7,9.38,9.38,0,0,1,.48-3.12,6.54,6.54,0,0,1,1.34-2.31,5.63,5.63,0,0,1,2-1.43,6.63,6.63,0,0,1,2.58-.5,5.93,5.93,0,0,1,2.19.39,4.7,4.7,0,0,1,1.69,1.13,5.14,5.14,0,0,1,1.1,1.79,6.94,6.94,0,0,1,.39,2.4,1.83,1.83,0,0,1-.4,1.28,1.55,1.55,0,0,1-1.16.41Zm6.13-2a4.23,4.23,0,0,0-.91-2.46,2.58,2.58,0,0,0-2-.8,2.83,2.83,0,0,0-1,.2,2.5,2.5,0,0,0-.91.59,3.67,3.67,0,0,0-.72,1,5.58,5.58,0,0,0-.45,1.46Z"/><path class="cls-1" d="M267.45,134.4a8.84,8.84,0,0,1,.5-3.1,6.54,6.54,0,0,1,1.41-2.34,6.14,6.14,0,0,1,2.17-1.47,7.37,7.37,0,0,1,2.79-.51,6.87,6.87,0,0,1,1.07.08,5.28,5.28,0,0,1,.85.21,2.8,2.8,0,0,1,.62.27,2,2,0,0,1,.39.3,1.22,1.22,0,0,1,.29.42,1.45,1.45,0,0,1,.09.54,1.3,1.3,0,0,1-.07.41,1.21,1.21,0,0,1-.2.33,1,1,0,0,1-.31.21.91.91,0,0,1-.41.08,1.21,1.21,0,0,1-.46-.08l-.48-.18a5.56,5.56,0,0,0-.64-.19,3.9,3.9,0,0,0-.9-.09,3.45,3.45,0,0,0-1.46.31,3.29,3.29,0,0,0-1.18.9,4.15,4.15,0,0,0-.79,1.49,6.74,6.74,0,0,0-.29,2.06,5.71,5.71,0,0,0,.29,1.88,4,4,0,0,0,.81,1.39,3.46,3.46,0,0,0,1.23.86,4.63,4.63,0,0,0,2.5.22,5.47,5.47,0,0,0,.65-.17l.48-.18a1,1,0,0,1,.4-.08.87.87,0,0,1,.37.07.84.84,0,0,1,.28.2,1,1,0,0,1,.24.67,1.1,1.1,0,0,1-.1.49,1.44,1.44,0,0,1-.3.41,2,2,0,0,1-.51.39,3.77,3.77,0,0,1-.75.31,7.84,7.84,0,0,1-1,.22,8.11,8.11,0,0,1-1.26.09,7.06,7.06,0,0,1-2.58-.45,5.52,5.52,0,0,1-2-1.29,6.05,6.05,0,0,1-1.28-2A7.44,7.44,0,0,1,267.45,134.4Z"/><path class="cls-1" d="M279.6,129.48a1,1,0,0,1-.73-.29,1.22,1.22,0,0,1-.27-.85,1.18,1.18,0,0,1,.27-.83,1,1,0,0,1,.73-.29H281l.37-2.37a1.66,1.66,0,0,1,.44-1,1.24,1.24,0,0,1,.89-.31,1.11,1.11,0,0,1,.85.31,1.25,1.25,0,0,1,.29.89v2.45h2.54a1,1,0,0,1,.73.29,1.14,1.14,0,0,1,.28.83,1.18,1.18,0,0,1-.28.85,1,1,0,0,1-.73.29h-2.54v7a2.27,2.27,0,0,0,.36,1.44,1.34,1.34,0,0,0,1.08.42,2.27,2.27,0,0,0,.48,0l.35-.07.29-.08a.73.73,0,0,1,.25,0,.75.75,0,0,1,.35.07.68.68,0,0,1,.26.18.92.92,0,0,1,.17.29.86.86,0,0,1,.07.36,1.14,1.14,0,0,1-.11.52,1.52,1.52,0,0,1-.29.39,1.19,1.19,0,0,1-.31.24,2.11,2.11,0,0,1-.52.24,4.18,4.18,0,0,1-.74.19,4.69,4.69,0,0,1-1,.08,3.76,3.76,0,0,1-2.75-.89,3.65,3.65,0,0,1-.88-2.68v-7.66Z"/><path class="cls-1" d="M289.49,138.87a2,2,0,0,1,.15-.8,2,2,0,0,1,.42-.64,1.87,1.87,0,0,1,.64-.42,1.91,1.91,0,0,1,.8-.16,2.09,2.09,0,0,1,.79.15,1.84,1.84,0,0,1,.62.4,1.81,1.81,0,0,1,.39.62,2.22,2.22,0,0,1,.14.79,2.28,2.28,0,0,1-.14.8,1.93,1.93,0,0,1-.42.63,2.06,2.06,0,0,1-.64.43,2.11,2.11,0,0,1-.8.15,2,2,0,0,1-.79-.15,1.74,1.74,0,0,1-.62-.4,2,2,0,0,1-.4-.61A2,2,0,0,1,289.49,138.87Z"/><path class="cls-1" d="M304,122.31a1.23,1.23,0,0,1,.36-1,2,2,0,0,1,2.21,0,1.23,1.23,0,0,1,.36,1v4.61c0,.31,0,.62,0,.93a9,9,0,0,1-.09,1h0a4.37,4.37,0,0,1,1-.91,5.93,5.93,0,0,1,.56-.34,4.64,4.64,0,0,1,.67-.3,4.79,4.79,0,0,1,.81-.21,5.7,5.7,0,0,1,.95-.08,5.89,5.89,0,0,1,2.22.41,4.62,4.62,0,0,1,1.71,1.23,5.85,5.85,0,0,1,1.12,2,9.53,9.53,0,0,1,.39,2.87,8.93,8.93,0,0,1-.49,3.08,6.19,6.19,0,0,1-1.43,2.28,6.07,6.07,0,0,1-2.28,1.43,9.09,9.09,0,0,1-3.06.49,11.14,11.14,0,0,1-1.72-.12,9.61,9.61,0,0,1-1.34-.3A6.1,6.1,0,0,1,305,140a2.23,2.23,0,0,1-.53-.37,2.11,2.11,0,0,1-.19-.23,1.82,1.82,0,0,1-.15-.27,1,1,0,0,1-.08-.32,2.76,2.76,0,0,1,0-.44ZM307,138a2.32,2.32,0,0,0,.59.28,4.23,4.23,0,0,0,.73.19,5.3,5.3,0,0,0,1,.09,4.16,4.16,0,0,0,1.61-.3,3.43,3.43,0,0,0,1.26-.9,4.2,4.2,0,0,0,.81-1.48,6.76,6.76,0,0,0,.29-2.07,8,8,0,0,0-.23-2,3.79,3.79,0,0,0-.63-1.37,2.41,2.41,0,0,0-1-.78,3.27,3.27,0,0,0-1.3-.25,2.57,2.57,0,0,0-.75.1,3.35,3.35,0,0,0-.65.24,3.64,3.64,0,0,0-.55.33,5.79,5.79,0,0,0-.44.39,4.26,4.26,0,0,0-.79,1.05Z"/><path class="cls-1" d="M319.24,128.44a1.24,1.24,0,0,1,.36-1,1.55,1.55,0,0,1,1.11-.34,1.51,1.51,0,0,1,1.1.34,1.24,1.24,0,0,1,.36,1V135a3.91,3.91,0,0,0,.73,2.64,2.49,2.49,0,0,0,2,.82,3.52,3.52,0,0,0,.75-.08,2.94,2.94,0,0,0,.63-.24,4.93,4.93,0,0,0,.54-.34,3.63,3.63,0,0,0,.46-.41,4.1,4.1,0,0,0,.78-1.05v-7.88a1.24,1.24,0,0,1,.36-1,1.57,1.57,0,0,1,1.11-.34,1.51,1.51,0,0,1,1.1.34,1.24,1.24,0,0,1,.36,1v11a1.11,1.11,0,0,1-1.21,1.22,1.62,1.62,0,0,1-.52-.08,1.07,1.07,0,0,1-.38-.21,1,1,0,0,1-.25-.37,2.6,2.6,0,0,1-.15-.51l-.12-.79h0a4.91,4.91,0,0,1-1,1.05,5.84,5.84,0,0,1-.58.38,4.84,4.84,0,0,1-.72.33,6.31,6.31,0,0,1-.86.23,4.61,4.61,0,0,1-1,.1,5.49,5.49,0,0,1-2-.36,4.35,4.35,0,0,1-1.55-1.05,4.49,4.49,0,0,1-1-1.71,7.2,7.2,0,0,1-.35-2.34Z"/><path class="cls-1" d="M334.59,123.19a1.88,1.88,0,0,1,.13-.72,1.69,1.69,0,0,1,.39-.58,1.87,1.87,0,0,1,.59-.38,1.92,1.92,0,0,1,.77-.14,1.73,1.73,0,0,1,.73.14,1.83,1.83,0,0,1,.58.38,1.57,1.57,0,0,1,.39.55,1.8,1.8,0,0,1,.13.69,1.9,1.9,0,0,1-.13.73,1.92,1.92,0,0,1-.39.57,2,2,0,0,1-1.36.52,1.73,1.73,0,0,1-.73-.14,1.65,1.65,0,0,1-.58-.37,1.71,1.71,0,0,1-.39-.56A1.73,1.73,0,0,1,334.59,123.19Zm.39,5.25a1.24,1.24,0,0,1,.36-1,2,2,0,0,1,2.21,0,1.24,1.24,0,0,1,.36,1v10.91a1.28,1.28,0,0,1-.36,1,2,2,0,0,1-2.21,0,1.28,1.28,0,0,1-.36-1Z"/><path class="cls-1" d="M341.84,122.31a1.23,1.23,0,0,1,.37-1,1.95,1.95,0,0,1,2.2,0,1.23,1.23,0,0,1,.36,1v14.22a4.47,4.47,0,0,0,.08.9,1.31,1.31,0,0,0,.21.57.76.76,0,0,0,.33.29,1,1,0,0,0,.43.09l.36,0a1.77,1.77,0,0,1,.32,0,.73.73,0,0,1,.3.06.62.62,0,0,1,.25.17.94.94,0,0,1,.16.28.86.86,0,0,1,.07.36,1.35,1.35,0,0,1-.1.53,1.37,1.37,0,0,1-.26.37,1.6,1.6,0,0,1-.27.22,2.36,2.36,0,0,1-.39.19,3.53,3.53,0,0,1-.54.14,5.08,5.08,0,0,1-.72.05,3.11,3.11,0,0,1-2.35-.84,3.52,3.52,0,0,1-.81-2.55Z"/><path class="cls-1" d="M357.77,122.31a1.26,1.26,0,0,1,.35-1,2,2,0,0,1,2.21,0,1.26,1.26,0,0,1,.35,1v17.16a1.22,1.22,0,0,1-.31.9,1.19,1.19,0,0,1-.9.32,1.67,1.67,0,0,1-.52-.08,1.28,1.28,0,0,1-.38-.21,1.1,1.1,0,0,1-.25-.37,2.08,2.08,0,0,1-.14-.51l-.12-.79h0a5,5,0,0,1-1,1.05,6.28,6.28,0,0,1-1.28.71,4.76,4.76,0,0,1-1.86.33,5.72,5.72,0,0,1-2.23-.42,4.69,4.69,0,0,1-1.72-1.23,5.82,5.82,0,0,1-1.1-2,9.12,9.12,0,0,1-.4-2.87,8.92,8.92,0,0,1,.5-3.08,6.3,6.3,0,0,1,1.42-2.29,6,6,0,0,1,2.28-1.42,8.91,8.91,0,0,1,3.07-.49,6.81,6.81,0,0,1,.82,0l.65.08.6.15,0,0c0-.5,0-1,0-1.58Zm0,7.46a3.65,3.65,0,0,0-.62-.24,6.17,6.17,0,0,0-.73-.17,6.25,6.25,0,0,0-1-.08,4.25,4.25,0,0,0-1.62.3,3.48,3.48,0,0,0-1.25.9,4.17,4.17,0,0,0-.81,1.47,6.69,6.69,0,0,0-.28,2.05,8.14,8.14,0,0,0,.22,2.05,4,4,0,0,0,.63,1.37,2.36,2.36,0,0,0,1,.78,3.38,3.38,0,0,0,1.3.24,3.52,3.52,0,0,0,.75-.08,3.25,3.25,0,0,0,.64-.24,3.55,3.55,0,0,0,.54-.34,4.38,4.38,0,0,0,.45-.41,4.21,4.21,0,0,0,.81-1.05Z"/><path class="cls-1" d="M364.45,138.87a2,2,0,0,1,.15-.8,2,2,0,0,1,.42-.64,1.87,1.87,0,0,1,.64-.42,1.94,1.94,0,0,1,.8-.16,2,2,0,0,1,.79.15,1.74,1.74,0,0,1,.62.4,2,2,0,0,1,.4.62,2.22,2.22,0,0,1,.13.79,2.07,2.07,0,0,1-.14.8,1.93,1.93,0,0,1-.42.63,2,2,0,0,1-1.44.58,2,2,0,0,1-.79-.15,1.84,1.84,0,0,1-.62-.4,2,2,0,0,1-.4-.61A2.22,2.22,0,0,1,364.45,138.87Z"/><path class="cls-1" d="M381,134.37v.07a5.24,5.24,0,0,0,.35,1.71,3.89,3.89,0,0,0,.83,1.27,3.5,3.5,0,0,0,1.28.79,4.74,4.74,0,0,0,1.64.27,6.34,6.34,0,0,0,1.24-.1c.34-.07.64-.15.89-.22l.64-.22a1.46,1.46,0,0,1,.53-.1.75.75,0,0,1,.37.08.84.84,0,0,1,.28.2.79.79,0,0,1,.18.29,1,1,0,0,1,.06.36,1.16,1.16,0,0,1-.09.47,1.51,1.51,0,0,1-.29.42,2.82,2.82,0,0,1-.55.39,5.35,5.35,0,0,1-.91.37,8.44,8.44,0,0,1-1.26.29,11,11,0,0,1-1.59.11,7.7,7.7,0,0,1-2.71-.45,5.61,5.61,0,0,1-2.06-1.3,5.7,5.7,0,0,1-1.3-2,7.42,7.42,0,0,1-.46-2.7,9.38,9.38,0,0,1,.48-3.12,6.54,6.54,0,0,1,1.34-2.31,5.63,5.63,0,0,1,2-1.43,6.56,6.56,0,0,1,2.58-.5,5.93,5.93,0,0,1,2.19.39,4.78,4.78,0,0,1,1.69,1.13,5.12,5.12,0,0,1,1.09,1.79,6.94,6.94,0,0,1,.39,2.4,1.83,1.83,0,0,1-.39,1.28,1.56,1.56,0,0,1-1.16.41Zm6.13-2a4.3,4.3,0,0,0-.91-2.46,2.6,2.6,0,0,0-2-.8,2.84,2.84,0,0,0-1.05.2,2.59,2.59,0,0,0-.91.59,3.87,3.87,0,0,0-.71,1,4.91,4.91,0,0,0-.45,1.46Z"/><path class="cls-1" d="M393,128.32a1.18,1.18,0,0,1,.32-.9,1.21,1.21,0,0,1,.89-.32,1.62,1.62,0,0,1,.52.08.94.94,0,0,1,.39.22,1,1,0,0,1,.25.36,1.76,1.76,0,0,1,.13.49l.12.81h.06a4.36,4.36,0,0,1,1-1.05,4.48,4.48,0,0,1,.58-.38,5.21,5.21,0,0,1,.71-.33,5.53,5.53,0,0,1,.87-.23,5.34,5.34,0,0,1,1-.09,5.89,5.89,0,0,1,2.08.35,4.17,4.17,0,0,1,1.58,1,4.68,4.68,0,0,1,1,1.7,7.32,7.32,0,0,1,.34,2.35v6.92a1.28,1.28,0,0,1-.36,1,1.95,1.95,0,0,1-2.2,0,1.28,1.28,0,0,1-.36-1v-6.53a5.55,5.55,0,0,0-.19-1.56,2.77,2.77,0,0,0-.54-1.07,2.34,2.34,0,0,0-.89-.63,3.36,3.36,0,0,0-1.18-.2,2.55,2.55,0,0,0-.74.1,3.25,3.25,0,0,0-.64.24,3.2,3.2,0,0,0-.55.33,5.79,5.79,0,0,0-.44.39,4.26,4.26,0,0,0-.79,1.05v7.88a1.28,1.28,0,0,1-.37,1,1.57,1.57,0,0,1-1.1.34,1.59,1.59,0,0,1-1.1-.34,1.28,1.28,0,0,1-.36-1Z"/><path class="cls-1" d="M416.09,132.06a4.24,4.24,0,0,0-.16-1.26,1.77,1.77,0,0,0-.51-.86,2.19,2.19,0,0,0-.92-.49,5.48,5.48,0,0,0-1.39-.16,6.13,6.13,0,0,0-1.37.13,7.07,7.07,0,0,0-1,.27L410,130a1.62,1.62,0,0,1-.54.11.93.93,0,0,1-.69-.26,1.21,1.21,0,0,1-.18-1.18,1.12,1.12,0,0,1,.27-.38,2.61,2.61,0,0,1,.63-.42,6.48,6.48,0,0,1,1.08-.41,11.42,11.42,0,0,1,1.43-.31,10.42,10.42,0,0,1,1.72-.14,5.73,5.73,0,0,1,3.93,1.18A4.39,4.39,0,0,1,419,131.6v4.63a13.71,13.71,0,0,0,.06,1.43,7.4,7.4,0,0,0,.13.9c.05.24.09.43.13.58a1.74,1.74,0,0,1,.06.45,1.08,1.08,0,0,1-.09.44,1.72,1.72,0,0,1-.25.35,1.16,1.16,0,0,1-.41.23,1.78,1.78,0,0,1-.53.08,1.54,1.54,0,0,1-.63-.12,1.42,1.42,0,0,1-.49-.35,2.07,2.07,0,0,1-.34-.54,4.12,4.12,0,0,1-.22-.7h0a5,5,0,0,1-1,.93,6.06,6.06,0,0,1-1.25.62,5,5,0,0,1-1.76.29,5.67,5.67,0,0,1-1.91-.3,4.11,4.11,0,0,1-1.42-.82,3.54,3.54,0,0,1-.89-1.25,4,4,0,0,1-.3-1.56,3.25,3.25,0,0,1,.39-1.61,3.3,3.3,0,0,1,1.13-1.16,5.66,5.66,0,0,1,1.78-.7,10.39,10.39,0,0,1,2.34-.24c.41,0,.77,0,1.09,0s.6.06.82.1a3.7,3.7,0,0,1,.69.13Zm0,3.37a5.09,5.09,0,0,0-.64-.14,6,6,0,0,0-.72-.1,8.86,8.86,0,0,0-.93,0,4.77,4.77,0,0,0-2.24.41,1.31,1.31,0,0,0-.72,1.21,1.69,1.69,0,0,0,.15.72,1.6,1.6,0,0,0,.43.58,2.29,2.29,0,0,0,.71.39,3.2,3.2,0,0,0,1,.14,2.86,2.86,0,0,0,1.27-.26,4.41,4.41,0,0,0,.94-.56,4.58,4.58,0,0,0,.78-.81Z"/><path class="cls-1" d="M422.91,122.31a1.23,1.23,0,0,1,.37-1,1.95,1.95,0,0,1,2.2,0,1.23,1.23,0,0,1,.36,1v4.61c0,.31,0,.62,0,.93s0,.62-.08,1h0a4,4,0,0,1,1-.91,5.74,5.74,0,0,1,.55-.34,5.19,5.19,0,0,1,.67-.3,4.67,4.67,0,0,1,.82-.21,5.49,5.49,0,0,1,.94-.08,5.82,5.82,0,0,1,2.22.41,4.58,4.58,0,0,1,1.72,1.23,5.68,5.68,0,0,1,1.11,2,9.52,9.52,0,0,1,.4,2.87,8.92,8.92,0,0,1-.5,3.08,6.17,6.17,0,0,1-1.42,2.28,6.07,6.07,0,0,1-2.28,1.43,9.2,9.2,0,0,1-3.07.49,11.09,11.09,0,0,1-1.71-.12,9.29,9.29,0,0,1-1.34-.3,5.72,5.72,0,0,1-1-.37,2.58,2.58,0,0,1-.54-.37,2.11,2.11,0,0,1-.19-.23,1.74,1.74,0,0,1-.14-.27,1.35,1.35,0,0,1-.09-.32,2.76,2.76,0,0,1,0-.44ZM425.84,138a2.4,2.4,0,0,0,.6.28,4,4,0,0,0,.73.19,5.19,5.19,0,0,0,1,.09,4.25,4.25,0,0,0,1.62-.3,3.4,3.4,0,0,0,1.25-.9,4.05,4.05,0,0,0,.81-1.48,6.47,6.47,0,0,0,.29-2.07,8,8,0,0,0-.22-2,3.64,3.64,0,0,0-.64-1.37,2.41,2.41,0,0,0-1-.78,3.24,3.24,0,0,0-1.3-.25,2.66,2.66,0,0,0-.75.1,3.35,3.35,0,0,0-.65.24,3.52,3.52,0,0,0-.54.33c-.17.13-.31.26-.45.39a4.52,4.52,0,0,0-.79,1.05Z"/><path class="cls-1" d="M438.19,122.31a1.23,1.23,0,0,1,.36-1,1.57,1.57,0,0,1,1.11-.34,1.54,1.54,0,0,1,1.1.34,1.23,1.23,0,0,1,.36,1v14.22a4.56,4.56,0,0,0,.07.9,1.62,1.62,0,0,0,.21.57.89.89,0,0,0,.33.29,1,1,0,0,0,.43.09l.37,0a1.72,1.72,0,0,1,.32,0,.8.8,0,0,1,.3.06.62.62,0,0,1,.25.17,1.21,1.21,0,0,1,.16.28,1,1,0,0,1,.06.36,1.12,1.12,0,0,1-.35.9,1.6,1.6,0,0,1-.27.22,2.14,2.14,0,0,1-.4.19,3,3,0,0,1-.54.14,4.87,4.87,0,0,1-.72.05,3.09,3.09,0,0,1-2.34-.84,3.52,3.52,0,0,1-.81-2.55Z"/><path class="cls-1" d="M447.71,134.37v.07a5.24,5.24,0,0,0,.35,1.71,3.73,3.73,0,0,0,.83,1.27,3.42,3.42,0,0,0,1.28.79,4.74,4.74,0,0,0,1.64.27,6.41,6.41,0,0,0,1.24-.1c.34-.07.64-.15.89-.22l.64-.22a1.45,1.45,0,0,1,.52-.1.79.79,0,0,1,.38.08,1,1,0,0,1,.28.2.79.79,0,0,1,.18.29,1,1,0,0,1,.06.36,1.16,1.16,0,0,1-.09.47,1.51,1.51,0,0,1-.29.42,2.94,2.94,0,0,1-.56.39,5,5,0,0,1-.91.37,8.44,8.44,0,0,1-1.26.29,10.78,10.78,0,0,1-1.58.11,7.66,7.66,0,0,1-2.71-.45,5.61,5.61,0,0,1-2.06-1.3,5.86,5.86,0,0,1-1.31-2,7.65,7.65,0,0,1-.45-2.7,9.38,9.38,0,0,1,.48-3.12,6.54,6.54,0,0,1,1.34-2.31,5.63,5.63,0,0,1,2-1.43,6.54,6.54,0,0,1,2.57-.5,5.93,5.93,0,0,1,2.19.39,4.74,4.74,0,0,1,1.7,1.13,5.12,5.12,0,0,1,1.09,1.79,6.94,6.94,0,0,1,.39,2.4,1.83,1.83,0,0,1-.39,1.28,1.59,1.59,0,0,1-1.17.41Zm6.13-2a4.37,4.37,0,0,0-.91-2.46,2.61,2.61,0,0,0-2-.8,2.84,2.84,0,0,0-1.05.2,2.59,2.59,0,0,0-.91.59,4.14,4.14,0,0,0-.72,1,5.58,5.58,0,0,0-.45,1.46Z"/><path class="cls-1" d="M459.08,138.87a2,2,0,0,1,.15-.8,2.15,2.15,0,0,1,.42-.64,2.08,2.08,0,0,1,1.45-.58,2,2,0,0,1,.78.15,1.74,1.74,0,0,1,.62.4,1.84,1.84,0,0,1,.4.62,2.22,2.22,0,0,1,.14.79,2.07,2.07,0,0,1-.15.8,1.76,1.76,0,0,1-.41.63,2,2,0,0,1-1.45.58,2,2,0,0,1-.79-.15,1.7,1.7,0,0,1-.61-.4,1.8,1.8,0,0,1-.4-.61A2,2,0,0,1,459.08,138.87Z"/></svg>