<svg id="Logos" xmlns="http://www.w3.org/2000/svg" viewBox="0 0 480.56 181.95"><defs><style>.cls-1{fill:#f3702d;}.cls-2{fill:#2d3361;}</style></defs><path class="cls-1" d="M97.34,12.43A78.55,78.55,0,1,0,176,90.85,78.55,78.55,0,0,0,97.34,12.43Zm7.21,117a4.56,4.56,0,0,1-2.88,1,4.62,4.62,0,0,1-3.59-1.71l-2.88-3.56L55.66,78.6h-.1l.07,48.54c0,1-.13,3.35-3,3.33h-4.1a3.22,3.22,0,0,1-3.21-3.19l-.1-63.84V60.81c0-3.12,4.34-3.1,4.56-3.11a5.41,5.41,0,0,1,3.63,1.41c.76.59,51.87,63.81,51.87,63.81A4.6,4.6,0,0,1,104.55,129.39Zm21.68-4.62-2,4.48a2,2,0,0,1-1.74,1.13h-1a2.08,2.08,0,0,1-1.74-1.13L88.31,60.33A1.81,1.81,0,0,1,90,57.66h7.28a2,2,0,0,1,1.75,1.12l22.63,50.71,4.55,10.23A6.24,6.24,0,0,1,126.23,124.77Zm13.33-24.08a6.47,6.47,0,0,1-8.34,3.38,6.25,6.25,0,1,1,8.34-3.38ZM147,83.51a6.47,6.47,0,0,1-8.34,3.38A6.26,6.26,0,1,1,147,83.51Zm-1.61-13.74a6.25,6.25,0,1,1,8.34-3.38A6.47,6.47,0,0,1,145.42,69.77Z"/><path class="cls-2" d="M249,56.64c-.72-2.17.49-3.63,2.3-3.63h5.08a3.62,3.62,0,0,1,3.75,2.78l11,34.11c1.21,3.75,2.42,9.07,3.63,14,1.08-5,2.41-10.28,3.62-14l11-34.11A3.88,3.88,0,0,1,293.17,53h5.08c2.06,0,3,1.21,2.3,3.63L282.16,112a4.32,4.32,0,0,1-4,3.27H271.4a4.21,4.21,0,0,1-4-3.14Z"/><path class="cls-2" d="M315.62,53h5.08a3,3,0,0,1,3,3v56.24a3,3,0,0,1-3,3h-5.08a3,3,0,0,1-3-3V56A3,3,0,0,1,315.62,53Z"/><path class="cls-2" d="M337.26,107.08c.37-1.82,1.94-2.42,3.87-1.94A49.32,49.32,0,0,0,354,107.08c6.78,0,11.25-3.51,11.25-8.35,0-13.67-27.94-8.34-27.94-29.87,0-10,7.86-17.42,20.81-17.42a51.39,51.39,0,0,1,13.06,1.82,3.08,3.08,0,0,1,2.3,3.87l-1.09,3.75c-.49,1.81-1.82,2.41-3.75,1.93a38.53,38.53,0,0,0-10.52-1.57c-6.66,0-9.56,3.26-9.56,7.62,0,12.7,27.94,7.5,27.94,29.63,0,9.07-7.14,18.38-22.5,18.38a53.11,53.11,0,0,1-15.23-2.29,3.18,3.18,0,0,1-2.3-3.75Z"/><path class="cls-2" d="M391.69,53h5.08a3,3,0,0,1,3,3v56.24a3,3,0,0,1-3,3h-5.08a3,3,0,0,1-3-3V56A3,3,0,0,1,391.69,53Z"/><path class="cls-2" d="M218.33,51.44a25,25,0,0,0-13.05,3.48,3,3,0,0,0-2.94-2.47h-5.08a3,3,0,0,0-3,3v56.83a2.86,2.86,0,0,0,3,3h5.08a2.86,2.86,0,0,0,3-3v-35c0-10.76,5.32-16.08,12.94-16.08s12.82,5.32,12.82,16.08v35a2.86,2.86,0,0,0,3,3h5.08a2.86,2.86,0,0,0,3-3V76.72C242.28,60.27,231.63,51.44,218.33,51.44Z"/><path class="cls-2" d="M435.23,51.44a58.37,58.37,0,0,0-15.73,2.42c-2.05.61-2.78,2.06-2.3,4.11l.73,1.87c.6,2,1.69,2.9,3.63,2.41a52.87,52.87,0,0,1,13.67-2c7.86,0,12,4.71,12,13.18v3.39H435c-13.42,0-22.61,6.65-22.61,18.87,0,11.36,9.91,19.15,23.1,19.15a25.25,25.25,0,0,0,11.74-3.26,3,3,0,0,0,3,2.87h5a3,3,0,0,0,3-3v-38C458.2,59.11,449.13,51.44,435.23,51.44Zm.24,54.6c-7.38,0-11.74-5.08-11.74-10.53s3.27-10,11.25-10H447.2V95.64C447.2,101.2,442.48,106,435.47,106Z"/><circle class="cls-2" cx="393.94" cy="39.92" r="6.63"/><circle class="cls-2" cx="318.56" cy="39.92" r="6.63"/><path class="cls-2" d="M193.22,137.91a8.79,8.79,0,0,1,.5-3.09,6.54,6.54,0,0,1,1.41-2.34A6.14,6.14,0,0,1,197.3,131a7.37,7.37,0,0,1,2.79-.51,7,7,0,0,1,1.07.08,5.28,5.28,0,0,1,.85.21,2.8,2.8,0,0,1,.62.27,2,2,0,0,1,.39.3,1.22,1.22,0,0,1,.29.42,1.45,1.45,0,0,1,.09.54,1.3,1.3,0,0,1-.07.41,1.21,1.21,0,0,1-.2.33,1,1,0,0,1-.31.21.91.91,0,0,1-.41.08,1.21,1.21,0,0,1-.46-.08l-.48-.18a5.56,5.56,0,0,0-.64-.19,3.9,3.9,0,0,0-.9-.09,3.45,3.45,0,0,0-1.46.31,3.21,3.21,0,0,0-1.18.9,4.33,4.33,0,0,0-.8,1.49,6.75,6.75,0,0,0-.28,2.06,5.75,5.75,0,0,0,.29,1.88,4,4,0,0,0,.8,1.39,3.59,3.59,0,0,0,1.24.86,4,4,0,0,0,1.57.3,4.12,4.12,0,0,0,.93-.08,5.47,5.47,0,0,0,.65-.17l.48-.18a1,1,0,0,1,.4-.08.87.87,0,0,1,.37.07.84.84,0,0,1,.28.2,1,1,0,0,1,.24.67,1.1,1.1,0,0,1-.1.49,1.44,1.44,0,0,1-.3.41,2,2,0,0,1-.51.39,3.77,3.77,0,0,1-.75.31,7.84,7.84,0,0,1-1,.22,8.11,8.11,0,0,1-1.26.09,7.06,7.06,0,0,1-2.58-.45,5.52,5.52,0,0,1-2-1.29,6,6,0,0,1-1.28-2A7.4,7.4,0,0,1,193.22,137.91Z"/><path class="cls-2" d="M205.16,137.65a8.86,8.86,0,0,1,.48-3,6.3,6.3,0,0,1,1.37-2.25,5.94,5.94,0,0,1,2.15-1.4,7.73,7.73,0,0,1,2.82-.49,7,7,0,0,1,2.63.48,5.81,5.81,0,0,1,2,1.35,6.17,6.17,0,0,1,1.33,2.11,7.56,7.56,0,0,1,.47,2.75,8.9,8.9,0,0,1-.48,3,6.28,6.28,0,0,1-1.36,2.25,5.87,5.87,0,0,1-2.15,1.41,7.87,7.87,0,0,1-2.82.48,7,7,0,0,1-2.63-.48,5.64,5.64,0,0,1-2.05-1.35,6,6,0,0,1-1.34-2.11A7.74,7.74,0,0,1,205.16,137.65Zm3-.26a6.32,6.32,0,0,0,.29,2,4.24,4.24,0,0,0,.78,1.46,3.47,3.47,0,0,0,1.17.89,3.66,3.66,0,0,0,2.88,0,3.06,3.06,0,0,0,1.16-.87,4.28,4.28,0,0,0,.76-1.44,6.29,6.29,0,0,0,.28-2,6.37,6.37,0,0,0-.29-2,4.33,4.33,0,0,0-.79-1.46,3.47,3.47,0,0,0-1.17-.89,3.58,3.58,0,0,0-2.87,0,3.06,3.06,0,0,0-1.16.87,4,4,0,0,0-.77,1.43A6.61,6.61,0,0,0,208.15,137.39Z"/><path class="cls-2" d="M221.54,131.84a1.11,1.11,0,0,1,1.22-1.22,1.6,1.6,0,0,1,.51.08.94.94,0,0,1,.39.22,1,1,0,0,1,.26.36,2.19,2.19,0,0,1,.13.49l.12.81h.05a4.41,4.41,0,0,1,1-1.05,3.76,3.76,0,0,1,.57-.38,6,6,0,0,1,.72-.33,5.13,5.13,0,0,1,.86-.23,5.34,5.34,0,0,1,1-.09,5.89,5.89,0,0,1,2.08.35A4.1,4.1,0,0,1,232,131.9a4.56,4.56,0,0,1,1,1.7,7.61,7.61,0,0,1,.34,2.35v6.92a1.28,1.28,0,0,1-.36,1,2,2,0,0,1-2.21,0,1.28,1.28,0,0,1-.36-1v-6.53a6,6,0,0,0-.18-1.56,2.92,2.92,0,0,0-.55-1.07,2.3,2.3,0,0,0-.88-.63,3.36,3.36,0,0,0-1.18-.2,2.5,2.5,0,0,0-.74.1,3.35,3.35,0,0,0-.65.24,4.21,4.21,0,0,0-.55.33,5.79,5.79,0,0,0-.44.39,4.52,4.52,0,0,0-.79,1.05v7.88a1.28,1.28,0,0,1-.36,1,1.59,1.59,0,0,1-1.1.34,1.57,1.57,0,0,1-1.1-.34,1.24,1.24,0,0,1-.37-1Z"/><path class="cls-2" d="M237.24,131.84a1.11,1.11,0,0,1,1.22-1.22,1.6,1.6,0,0,1,.51.08.94.94,0,0,1,.39.22,1,1,0,0,1,.26.36,2.19,2.19,0,0,1,.13.49l.12.81h0a4.41,4.41,0,0,1,1-1.05,3.76,3.76,0,0,1,.57-.38,6,6,0,0,1,.72-.33,5.13,5.13,0,0,1,.86-.23,5.34,5.34,0,0,1,1-.09,5.89,5.89,0,0,1,2.08.35,4.1,4.1,0,0,1,1.58,1.05,4.56,4.56,0,0,1,1,1.7,7.61,7.61,0,0,1,.34,2.35v6.92a1.28,1.28,0,0,1-.36,1,2,2,0,0,1-2.21,0,1.28,1.28,0,0,1-.36-1v-6.53a6,6,0,0,0-.18-1.56,2.92,2.92,0,0,0-.55-1.07,2.3,2.3,0,0,0-.88-.63,3.36,3.36,0,0,0-1.18-.2,2.5,2.5,0,0,0-.74.1,3.35,3.35,0,0,0-.65.24,4.21,4.21,0,0,0-.55.33,5.79,5.79,0,0,0-.44.39,4.52,4.52,0,0,0-.79,1.05v7.88a1.28,1.28,0,0,1-.36,1,1.59,1.59,0,0,1-1.1.34,1.57,1.57,0,0,1-1.1-.34,1.24,1.24,0,0,1-.37-1Z"/><path class="cls-2" d="M255,137.89V138a5.25,5.25,0,0,0,.35,1.72,3.89,3.89,0,0,0,.83,1.27,3.5,3.5,0,0,0,1.28.79,4.74,4.74,0,0,0,1.64.27,6.34,6.34,0,0,0,1.24-.1c.34-.07.64-.15.89-.22l.64-.22a1.46,1.46,0,0,1,.53-.1.75.75,0,0,1,.37.08.84.84,0,0,1,.28.2.79.79,0,0,1,.18.29,1,1,0,0,1,.06.36,1.16,1.16,0,0,1-.09.47,1.51,1.51,0,0,1-.29.42,2.82,2.82,0,0,1-.55.39,5.35,5.35,0,0,1-.91.37,8.44,8.44,0,0,1-1.26.29,11,11,0,0,1-1.59.11,7.7,7.7,0,0,1-2.71-.45,5.61,5.61,0,0,1-2.06-1.3,5.86,5.86,0,0,1-1.31-2,7.65,7.65,0,0,1-.45-2.7,9.38,9.38,0,0,1,.48-3.12,6.54,6.54,0,0,1,1.34-2.31,5.63,5.63,0,0,1,2-1.43,6.56,6.56,0,0,1,2.58-.5,5.84,5.84,0,0,1,2.18.39,4.74,4.74,0,0,1,1.7,1.13,5.12,5.12,0,0,1,1.09,1.79,6.94,6.94,0,0,1,.39,2.4,1.8,1.8,0,0,1-.39,1.27,1.53,1.53,0,0,1-1.16.42Zm6.13-2a4.3,4.3,0,0,0-.91-2.46,2.6,2.6,0,0,0-2-.8,2.84,2.84,0,0,0-1,.2,2.59,2.59,0,0,0-.91.59,3.87,3.87,0,0,0-.71,1,4.91,4.91,0,0,0-.45,1.46Z"/><path class="cls-2" d="M266.05,137.91a8.79,8.79,0,0,1,.5-3.09,6.54,6.54,0,0,1,1.41-2.34,6.05,6.05,0,0,1,2.17-1.47,7.37,7.37,0,0,1,2.79-.51,7,7,0,0,1,1.07.08,5.28,5.28,0,0,1,.85.21,3,3,0,0,1,.62.27,1.62,1.62,0,0,1,.38.3,1,1,0,0,1,.29.42,1.27,1.27,0,0,1,.1.54,1.07,1.07,0,0,1-.08.41,1,1,0,0,1-.19.33,1,1,0,0,1-.72.29,1.21,1.21,0,0,1-.46-.08l-.49-.18a5,5,0,0,0-.64-.19,3.75,3.75,0,0,0-.89-.09,3.42,3.42,0,0,0-1.46.31,3.33,3.33,0,0,0-1.19.9,4.31,4.31,0,0,0-.79,1.49,6.75,6.75,0,0,0-.28,2.06,5.75,5.75,0,0,0,.29,1.88,4,4,0,0,0,.8,1.39,3.59,3.59,0,0,0,1.24.86,4,4,0,0,0,1.57.3,4.12,4.12,0,0,0,.93-.08,5.47,5.47,0,0,0,.65-.17l.47-.18a1,1,0,0,1,.41-.08.87.87,0,0,1,.37.07,1,1,0,0,1,.28.2,1.49,1.49,0,0,1,.18.3,1.15,1.15,0,0,1,.06.37,1.1,1.1,0,0,1-.1.49,1.31,1.31,0,0,1-.31.41,1.89,1.89,0,0,1-.5.39,3.63,3.63,0,0,1-.76.31,7.33,7.33,0,0,1-1,.22,8.11,8.11,0,0,1-1.26.09,7.15,7.15,0,0,1-2.59-.45,5.57,5.57,0,0,1-2-1.29,5.85,5.85,0,0,1-1.28-2A7.4,7.4,0,0,1,266.05,137.91Z"/><path class="cls-2" d="M278.2,133a1,1,0,0,1-.73-.29,1.22,1.22,0,0,1-.27-.85,1.18,1.18,0,0,1,.27-.83,1,1,0,0,1,.73-.29h1.34l.37-2.37a1.72,1.72,0,0,1,.44-1,1.27,1.27,0,0,1,.89-.31,1.13,1.13,0,0,1,.86.31,1.25,1.25,0,0,1,.29.89v2.45h2.53a1,1,0,0,1,.74.29,1.14,1.14,0,0,1,.28.83,1.18,1.18,0,0,1-.28.85,1,1,0,0,1-.74.29h-2.53v7a2.27,2.27,0,0,0,.36,1.44,1.34,1.34,0,0,0,1.08.42,2.17,2.17,0,0,0,.47,0l.36-.07a2.05,2.05,0,0,1,.28-.08.89.89,0,0,1,.61,0,.68.68,0,0,1,.26.18,1.17,1.17,0,0,1,.17.29,1,1,0,0,1,.06.36,1.15,1.15,0,0,1-.1.52,1.52,1.52,0,0,1-.29.39,1.39,1.39,0,0,1-.31.24,2.3,2.3,0,0,1-.52.24,4.18,4.18,0,0,1-.74.19,4.79,4.79,0,0,1-1,.08,3.73,3.73,0,0,1-2.74-.89,3.65,3.65,0,0,1-.88-2.68V133Z"/><path class="cls-2" d="M288.08,142.39a2,2,0,0,1,.15-.8,2,2,0,0,1,.43-.64,1.87,1.87,0,0,1,.64-.42,1.91,1.91,0,0,1,.8-.16,2.21,2.21,0,0,1,.78.14,1.81,1.81,0,0,1,.62.41,1.7,1.7,0,0,1,.4.62,2.22,2.22,0,0,1,.14.79,2.07,2.07,0,0,1-.15.8,1.76,1.76,0,0,1-.41.63,2,2,0,0,1-1.45.58,2,2,0,0,1-.79-.15,1.79,1.79,0,0,1-1-1A2,2,0,0,1,288.08,142.39Z"/><path class="cls-2" d="M302.63,125.83a1.23,1.23,0,0,1,.36-1,1.95,1.95,0,0,1,2.2,0,1.23,1.23,0,0,1,.37,1v4.61c0,.31,0,.62,0,.93s-.05.62-.09,1h0a4,4,0,0,1,1-.91,4.88,4.88,0,0,1,.56-.34,4.64,4.64,0,0,1,.67-.3,4.79,4.79,0,0,1,.81-.21,5.58,5.58,0,0,1,.94-.08,5.82,5.82,0,0,1,2.22.41,4.58,4.58,0,0,1,1.72,1.23,5.68,5.68,0,0,1,1.11,2.05,9.21,9.21,0,0,1,.4,2.87,9,9,0,0,1-.5,3.08,6,6,0,0,1-3.7,3.71,9.15,9.15,0,0,1-3.07.49,11.09,11.09,0,0,1-1.71-.12,9.29,9.29,0,0,1-1.34-.3,6.1,6.1,0,0,1-.95-.37,2.23,2.23,0,0,1-.53-.37,2.2,2.2,0,0,1-.2-.23c-.05-.09-.1-.18-.14-.27a1.35,1.35,0,0,1-.09-.32c0-.12,0-.27,0-.44Zm2.93,15.68a2.16,2.16,0,0,0,.59.28,4.23,4.23,0,0,0,.73.19,5.3,5.3,0,0,0,1,.09,4.23,4.23,0,0,0,1.61-.3,3.32,3.32,0,0,0,1.25-.9,4.31,4.31,0,0,0,.82-1.48,6.83,6.83,0,0,0,.29-2.08,7.88,7.88,0,0,0-.23-2,3.79,3.79,0,0,0-.63-1.37,2.44,2.44,0,0,0-1-.78,3.21,3.21,0,0,0-1.3-.25,2.55,2.55,0,0,0-.74.1,3.35,3.35,0,0,0-.65.24,3.2,3.2,0,0,0-.55.33,5.79,5.79,0,0,0-.44.39,4.26,4.26,0,0,0-.79,1.05Z"/><path class="cls-2" d="M317.84,132a1.24,1.24,0,0,1,.36-1,1.51,1.51,0,0,1,1.1-.34,1.55,1.55,0,0,1,1.11.34,1.24,1.24,0,0,1,.36,1v6.53a4,4,0,0,0,.72,2.65,2.52,2.52,0,0,0,2,.82,3.55,3.55,0,0,0,.76-.08,3.41,3.41,0,0,0,.63-.24,4.93,4.93,0,0,0,.54-.34,3.63,3.63,0,0,0,.46-.41,4.1,4.1,0,0,0,.78-1V132a1.24,1.24,0,0,1,.36-1,2,2,0,0,1,2.21,0,1.24,1.24,0,0,1,.36,1v11a1.11,1.11,0,0,1-1.22,1.22,1.6,1.6,0,0,1-.51-.08,1.07,1.07,0,0,1-.38-.21,1,1,0,0,1-.25-.37,2.06,2.06,0,0,1-.15-.51l-.12-.79h0a4.46,4.46,0,0,1-1,1.05,5.63,5.63,0,0,1-.57.38,6,6,0,0,1-.72.33,6.31,6.31,0,0,1-.86.23,4.61,4.61,0,0,1-1,.1,5.46,5.46,0,0,1-2-.36,4.26,4.26,0,0,1-1.55-1,4.64,4.64,0,0,1-1-1.71,7.26,7.26,0,0,1-.34-2.34Z"/><path class="cls-2" d="M333.18,126.71a1.89,1.89,0,0,1,.14-.72,1.67,1.67,0,0,1,.38-.58,2,2,0,0,1,1.37-.52,1.76,1.76,0,0,1,.73.14,1.94,1.94,0,0,1,.58.38,1.55,1.55,0,0,1,.38.55,1.64,1.64,0,0,1,.14.69,1.73,1.73,0,0,1-.14.73,1.61,1.61,0,0,1-.39.57,1.71,1.71,0,0,1-.59.38,1.87,1.87,0,0,1-.76.14,1.81,1.81,0,0,1-.74-.14,1.85,1.85,0,0,1-.58-.37,1.68,1.68,0,0,1-.38-.56A1.74,1.74,0,0,1,333.18,126.71Zm.4,5.25a1.24,1.24,0,0,1,.36-1,1.95,1.95,0,0,1,2.2,0,1.24,1.24,0,0,1,.37,1v10.91a1.28,1.28,0,0,1-.37,1,1.95,1.95,0,0,1-2.2,0,1.28,1.28,0,0,1-.36-1Z"/><path class="cls-2" d="M340.44,125.83a1.23,1.23,0,0,1,.36-1,1.57,1.57,0,0,1,1.11-.34,1.54,1.54,0,0,1,1.1.34,1.23,1.23,0,0,1,.36,1v14.22a4.56,4.56,0,0,0,.07.9,1.62,1.62,0,0,0,.21.57.89.89,0,0,0,.33.29,1,1,0,0,0,.43.09l.37,0a1.72,1.72,0,0,1,.32,0,.8.8,0,0,1,.3.06.62.62,0,0,1,.25.17.94.94,0,0,1,.16.28,1,1,0,0,1,.07.36,1.35,1.35,0,0,1-.1.53,1.37,1.37,0,0,1-.26.37,1.6,1.6,0,0,1-.27.22,2.14,2.14,0,0,1-.4.19,3,3,0,0,1-.54.14,4.87,4.87,0,0,1-.72,0,3.09,3.09,0,0,1-2.34-.84,3.52,3.52,0,0,1-.81-2.55Z"/><path class="cls-2" d="M356.37,125.83a1.22,1.22,0,0,1,.35-1,1.53,1.53,0,0,1,1.1-.34,1.51,1.51,0,0,1,1.1.34,1.23,1.23,0,0,1,.36,1V143a1.1,1.1,0,0,1-1.21,1.22,1.62,1.62,0,0,1-.52-.08,1.07,1.07,0,0,1-.38-.21,1,1,0,0,1-.25-.37,2.6,2.6,0,0,1-.15-.51l-.11-.79h0a5,5,0,0,1-1,1.05,6,6,0,0,1-1.28.71,4.67,4.67,0,0,1-1.85.33,5.68,5.68,0,0,1-2.23-.42,4.69,4.69,0,0,1-1.72-1.23,5.82,5.82,0,0,1-1.1-2.05,9.12,9.12,0,0,1-.4-2.87,8.93,8.93,0,0,1,.49-3.08A6.32,6.32,0,0,1,349,132.4a6,6,0,0,1,2.28-1.42,8.87,8.87,0,0,1,3.07-.49,7,7,0,0,1,.82,0l.65.08.6.15,0,0c0-.5,0-1,0-1.58Zm0,7.46a4,4,0,0,0-.62-.24,5.93,5.93,0,0,0-.74-.17,6,6,0,0,0-1-.08,4.18,4.18,0,0,0-1.62.3,3.48,3.48,0,0,0-1.25.9,3.88,3.88,0,0,0-.81,1.47,6.67,6.67,0,0,0-.29,2.05,8,8,0,0,0,.23,2,3.92,3.92,0,0,0,.63,1.38,2.3,2.3,0,0,0,1,.78,3.37,3.37,0,0,0,1.29.24,3.55,3.55,0,0,0,.76-.08,3.51,3.51,0,0,0,.64-.24,4.93,4.93,0,0,0,.54-.34,4.38,4.38,0,0,0,.45-.41,4.21,4.21,0,0,0,.81-1Z"/><path class="cls-2" d="M363.05,142.39a2,2,0,0,1,.15-.8,2,2,0,0,1,.42-.64,1.87,1.87,0,0,1,.64-.42,1.91,1.91,0,0,1,.8-.16,2.3,2.3,0,0,1,.79.14,2,2,0,0,1,.62.41,1.81,1.81,0,0,1,.39.62,2.22,2.22,0,0,1,.14.79,2.28,2.28,0,0,1-.14.8,1.93,1.93,0,0,1-.42.63,2.06,2.06,0,0,1-.64.43,2.11,2.11,0,0,1-.8.15,2,2,0,0,1-.79-.15,1.74,1.74,0,0,1-.62-.4,2,2,0,0,1-.4-.61A2,2,0,0,1,363.05,142.39Z"/><path class="cls-2" d="M379.6,137.89V138a5.25,5.25,0,0,0,.35,1.72,3.73,3.73,0,0,0,.83,1.27,3.46,3.46,0,0,0,1.27.79,4.84,4.84,0,0,0,1.65.27,6.41,6.41,0,0,0,1.24-.1c.34-.07.64-.15.89-.22l.64-.22a1.45,1.45,0,0,1,.52-.1.79.79,0,0,1,.38.08,1,1,0,0,1,.28.2.79.79,0,0,1,.18.29,1,1,0,0,1,.06.36,1.16,1.16,0,0,1-.09.47,1.51,1.51,0,0,1-.29.42,2.94,2.94,0,0,1-.56.39,5,5,0,0,1-.91.37,8.44,8.44,0,0,1-1.26.29,10.78,10.78,0,0,1-1.58.11,7.66,7.66,0,0,1-2.71-.45,5.61,5.61,0,0,1-2.06-1.3,5.86,5.86,0,0,1-1.31-2,7.65,7.65,0,0,1-.45-2.7,9.38,9.38,0,0,1,.48-3.12,6.54,6.54,0,0,1,1.34-2.31,5.63,5.63,0,0,1,2-1.43,6.54,6.54,0,0,1,2.57-.5,5.93,5.93,0,0,1,2.19.39A4.74,4.74,0,0,1,387,132a5.12,5.12,0,0,1,1.09,1.79,6.94,6.94,0,0,1,.39,2.4,1.8,1.8,0,0,1-.39,1.27,1.55,1.55,0,0,1-1.17.42Zm6.13-2a4.37,4.37,0,0,0-.91-2.46,2.61,2.61,0,0,0-2-.8,2.84,2.84,0,0,0-1.05.2,2.59,2.59,0,0,0-.91.59,4.14,4.14,0,0,0-.72,1,5.58,5.58,0,0,0-.45,1.46Z"/><path class="cls-2" d="M391.62,131.84a1.1,1.1,0,0,1,1.21-1.22,1.6,1.6,0,0,1,.51.08.94.94,0,0,1,.39.22,1,1,0,0,1,.26.36,1.76,1.76,0,0,1,.13.49l.12.81h.05a4.41,4.41,0,0,1,1-1.05,5.13,5.13,0,0,1,.57-.38,6,6,0,0,1,.72-.33,5.13,5.13,0,0,1,.86-.23,5.42,5.42,0,0,1,1-.09,6,6,0,0,1,2.09.35,4.14,4.14,0,0,1,1.57,1.05,4.56,4.56,0,0,1,1,1.7,7.32,7.32,0,0,1,.34,2.35v6.92a1.28,1.28,0,0,1-.36,1,1.95,1.95,0,0,1-2.2,0,1.28,1.28,0,0,1-.37-1v-6.53a6,6,0,0,0-.18-1.56,2.78,2.78,0,0,0-.55-1.07,2.23,2.23,0,0,0-.88-.63,3.36,3.36,0,0,0-1.18-.2,2.5,2.5,0,0,0-.74.1,3.61,3.61,0,0,0-.65.24,3.52,3.52,0,0,0-.54.33,4.34,4.34,0,0,0-.44.39,4.56,4.56,0,0,0-.8,1.05v7.88a1.28,1.28,0,0,1-.36,1,1.95,1.95,0,0,1-2.2,0,1.28,1.28,0,0,1-.36-1Z"/><path class="cls-2" d="M414.69,135.58a4.6,4.6,0,0,0-.16-1.26,1.94,1.94,0,0,0-.51-.86,2.19,2.19,0,0,0-.92-.49,5.53,5.53,0,0,0-1.39-.16,6.13,6.13,0,0,0-1.37.13,7.67,7.67,0,0,0-1,.27l-.71.28a1.68,1.68,0,0,1-.55.11.89.89,0,0,1-.68-.26,1,1,0,0,1-.27-.74,1.19,1.19,0,0,1,.08-.44,1.32,1.32,0,0,1,.28-.38,2.25,2.25,0,0,1,.63-.42,6.69,6.69,0,0,1,1.07-.41,11.22,11.22,0,0,1,1.44-.31,10.39,10.39,0,0,1,1.71-.14,5.76,5.76,0,0,1,3.94,1.18,4.38,4.38,0,0,1,1.31,3.44v4.63a13.71,13.71,0,0,0,.06,1.43c0,.36.09.66.13.9s.1.43.14.58a1.74,1.74,0,0,1,.06.45,1.09,1.09,0,0,1-.1.44,1.19,1.19,0,0,1-.25.35,1.11,1.11,0,0,1-.4.23,1.78,1.78,0,0,1-.53.08,1.62,1.62,0,0,1-.64-.12,1.48,1.48,0,0,1-.48-.35,1.84,1.84,0,0,1-.34-.54,3.38,3.38,0,0,1-.22-.7h0a5,5,0,0,1-1,.93,6.16,6.16,0,0,1-1.26.62,4.9,4.9,0,0,1-1.75.29,5.67,5.67,0,0,1-1.91-.3,4.16,4.16,0,0,1-1.43-.82,3.64,3.64,0,0,1-.88-1.25,4,4,0,0,1-.3-1.56,3.23,3.23,0,0,1,.39-1.61,3.14,3.14,0,0,1,1.13-1.16,5.69,5.69,0,0,1,1.77-.7,10.55,10.55,0,0,1,2.35-.24c.41,0,.77,0,1.09,0l.82.09c.27,0,.49.08.69.13Zm0,3.36c-.2-.05-.41-.09-.65-.13a5.77,5.77,0,0,0-.71-.1,8.86,8.86,0,0,0-.93,0,4.79,4.79,0,0,0-2.24.4,1.33,1.33,0,0,0-.72,1.22,1.89,1.89,0,0,0,.14.72,1.75,1.75,0,0,0,.44.58,2.29,2.29,0,0,0,.71.39,3.15,3.15,0,0,0,1,.14,2.78,2.78,0,0,0,1.26-.26,4.49,4.49,0,0,0,1-.56,4.58,4.58,0,0,0,.78-.81Z"/><path class="cls-2" d="M421.51,125.83a1.23,1.23,0,0,1,.36-1,2,2,0,0,1,2.21,0,1.23,1.23,0,0,1,.36,1v4.61c0,.31,0,.62,0,.93a9,9,0,0,1-.09,1h0a4.21,4.21,0,0,1,1-.91,4.72,4.72,0,0,1,.55-.34,5.19,5.19,0,0,1,.67-.3,4.79,4.79,0,0,1,.81-.21,5.7,5.7,0,0,1,.95-.08,5.89,5.89,0,0,1,2.22.41,4.62,4.62,0,0,1,1.71,1.23,5.85,5.85,0,0,1,1.12,2.05,9.53,9.53,0,0,1,.39,2.87,9,9,0,0,1-.49,3.08,6.19,6.19,0,0,1-1.43,2.28,6.07,6.07,0,0,1-2.28,1.43,9.09,9.09,0,0,1-3.06.49,11.14,11.14,0,0,1-1.72-.12,9.61,9.61,0,0,1-1.34-.3,6.1,6.1,0,0,1-.95-.37,2.23,2.23,0,0,1-.53-.37,2.11,2.11,0,0,1-.19-.23,1.82,1.82,0,0,1-.15-.27,1,1,0,0,1-.08-.32,2.76,2.76,0,0,1,0-.44Zm2.93,15.68a2.49,2.49,0,0,0,.59.28,4.49,4.49,0,0,0,.73.19,5.3,5.3,0,0,0,1,.09,4.25,4.25,0,0,0,1.62-.3,3.48,3.48,0,0,0,1.25-.9,4.29,4.29,0,0,0,.81-1.48,6.83,6.83,0,0,0,.29-2.08,7.88,7.88,0,0,0-.23-2,3.79,3.79,0,0,0-.63-1.37,2.41,2.41,0,0,0-1-.78,3.24,3.24,0,0,0-1.3-.25,2.61,2.61,0,0,0-.75.1,3.35,3.35,0,0,0-.65.24,4.21,4.21,0,0,0-.55.33,5.79,5.79,0,0,0-.44.39,4.26,4.26,0,0,0-.79,1.05Z"/><path class="cls-2" d="M436.79,125.83a1.23,1.23,0,0,1,.36-1,1.95,1.95,0,0,1,2.2,0,1.2,1.2,0,0,1,.37,1v14.22a4.56,4.56,0,0,0,.07.9,1.62,1.62,0,0,0,.21.57.76.76,0,0,0,.33.29,1,1,0,0,0,.43.09l.37,0a1.62,1.62,0,0,1,.31,0,.81.81,0,0,1,.31.06.59.59,0,0,1,.24.17,1,1,0,0,1,.17.28,1,1,0,0,1,.06.36,1.19,1.19,0,0,1-.1.53,1.34,1.34,0,0,1-.25.37,1.6,1.6,0,0,1-.27.22,2.49,2.49,0,0,1-.4.19,3,3,0,0,1-.54.14,5.08,5.08,0,0,1-.72,0,3.11,3.11,0,0,1-2.35-.84,3.56,3.56,0,0,1-.8-2.55Z"/><path class="cls-2" d="M446.3,137.89V138a5.52,5.52,0,0,0,.36,1.72,3.73,3.73,0,0,0,.83,1.27,3.46,3.46,0,0,0,1.27.79,4.82,4.82,0,0,0,1.64.27,6.27,6.27,0,0,0,1.24-.1c.35-.07.64-.15.89-.22l.65-.22a1.41,1.41,0,0,1,.52-.1.79.79,0,0,1,.38.08,1,1,0,0,1,.28.2.79.79,0,0,1,.18.29,1,1,0,0,1,.06.36,1.16,1.16,0,0,1-.09.47,1.56,1.56,0,0,1-.3.42,2.54,2.54,0,0,1-.55.39,5.35,5.35,0,0,1-.91.37,8.44,8.44,0,0,1-1.26.29,11,11,0,0,1-1.59.11,7.74,7.74,0,0,1-2.71-.45,5.57,5.57,0,0,1-2.05-1.3,5.73,5.73,0,0,1-1.31-2,7.65,7.65,0,0,1-.45-2.7,9.38,9.38,0,0,1,.48-3.12,6.52,6.52,0,0,1,1.33-2.31,5.81,5.81,0,0,1,2-1.43,6.63,6.63,0,0,1,2.58-.5,5.93,5.93,0,0,1,2.19.39,4.7,4.7,0,0,1,1.69,1.13,5.14,5.14,0,0,1,1.1,1.79,6.94,6.94,0,0,1,.39,2.4,1.76,1.76,0,0,1-.4,1.27,1.51,1.51,0,0,1-1.16.42Zm6.14-2a4.37,4.37,0,0,0-.91-2.46,2.61,2.61,0,0,0-2-.8,2.84,2.84,0,0,0-1.05.2,2.59,2.59,0,0,0-.91.59,3.67,3.67,0,0,0-.72,1,5.58,5.58,0,0,0-.45,1.46Z"/><path class="cls-2" d="M457.68,142.39a2,2,0,0,1,.15-.8,2,2,0,0,1,1.87-1.22,2.21,2.21,0,0,1,.78.14,1.92,1.92,0,0,1,.62.41,2,2,0,0,1,.4.62,2.22,2.22,0,0,1,.13.79,2.07,2.07,0,0,1-.14.8,1.93,1.93,0,0,1-.42.63,2.13,2.13,0,0,1-.63.43,2.16,2.16,0,0,1-.81.15,2,2,0,0,1-.79-.15,1.7,1.7,0,0,1-.61-.4,1.82,1.82,0,0,1-.41-.61A2.22,2.22,0,0,1,457.68,142.39Z"/></svg>