<svg width="65" height="61" viewBox="0 0 65 61" fill="none" xmlns="http://www.w3.org/2000/svg">
<path opacity="0.5" d="M34.2687 56.3128C48.8207 56.3128 60.6174 44.5312 60.6174 29.9979C60.6174 15.4646 48.8207 3.68298 34.2687 3.68298C19.7167 3.68298 7.91992 15.4646 7.91992 29.9979C7.91992 44.5312 19.7167 56.3128 34.2687 56.3128Z" fill="#A8CFEE"/>
<path d="M34.3297 59.5791H33.3102C33.1657 59.572 33.0296 59.5087 32.9311 59.4027C32.8327 59.2967 32.7797 59.1564 32.7834 59.0119C32.7887 58.8705 32.8487 58.7367 32.9508 58.6385C33.0529 58.5404 33.1891 58.4856 33.3308 58.4857H33.7139H34.7676C34.9128 58.4857 35.052 58.5433 35.1546 58.6459C35.2573 58.7484 35.315 58.8874 35.315 59.0324C35.315 59.1774 35.2573 59.3164 35.1546 59.419C35.052 59.5215 34.9128 59.5791 34.7676 59.5791H34.3297ZM38.4349 59.2921C38.3041 59.2919 38.1777 59.245 38.0785 59.1597C37.9793 59.0745 37.914 58.9566 37.8944 58.8274C37.8748 58.6835 37.9126 58.5377 37.9996 58.4214C38.0866 58.3051 38.216 58.2276 38.3597 58.2056C38.8318 58.1441 39.3039 58.0621 39.7691 57.9733C39.8411 57.9562 39.9157 57.9538 39.9886 57.9663C40.0615 57.9789 40.131 58.006 40.1931 58.0461C40.2552 58.0862 40.3085 58.1385 40.3498 58.1997C40.3911 58.261 40.4195 58.3299 40.4334 58.4025C40.4473 58.475 40.4463 58.5496 40.4305 58.6217C40.4147 58.6939 40.3845 58.7621 40.3416 58.8222C40.2987 58.8824 40.244 58.9332 40.1809 58.9717C40.1178 59.0102 40.0476 59.0355 39.9744 59.0461C39.4955 59.1417 39.0028 59.2237 38.5102 59.2921H38.4349ZM29.7045 59.2169H29.6224C29.1297 59.1417 28.644 59.0461 28.1582 58.9436C28.0266 58.9042 27.9147 58.8169 27.8446 58.6989C27.7745 58.5809 27.7514 58.441 27.7798 58.3068C27.8083 58.1726 27.8861 58.054 27.9981 57.9745C28.11 57.895 28.2477 57.8604 28.384 57.8776C28.8492 57.9732 29.3213 58.0621 29.7934 58.1372C29.9296 58.1589 30.0526 58.2312 30.1377 58.3395C30.2229 58.4479 30.264 58.5843 30.2527 58.7216C30.2415 58.8589 30.1788 58.9869 30.0771 59.08C29.9755 59.1731 29.8424 59.2244 29.7045 59.2237V59.2169ZM24.7645 57.9801C24.7057 57.9904 24.6455 57.9904 24.5866 57.9801C24.1145 57.8161 23.6493 57.6453 23.2182 57.4608C23.0917 57.4049 22.9907 57.3038 22.935 57.1774C22.8793 57.051 22.8729 56.9083 22.9172 56.7774C22.9718 56.65 23.0728 56.5481 23.1999 56.4923C23.3269 56.4365 23.4704 56.4309 23.6014 56.4768C24.0461 56.6544 24.4908 56.8184 24.9698 56.9756C25.094 57.0163 25.1996 57.1002 25.2673 57.212C25.335 57.3237 25.3604 57.456 25.3389 57.5848C25.3174 57.7137 25.2504 57.8306 25.1501 57.9144C25.0497 57.9982 24.9227 58.0433 24.7919 58.0416L24.7645 57.9801ZM20.1188 55.8891C20.0254 55.89 19.9333 55.8665 19.8519 55.8208C19.4209 55.5816 18.9967 55.3288 18.5725 55.0623C18.4503 54.985 18.3637 54.8625 18.3317 54.7217C18.2996 54.5808 18.3247 54.4331 18.4014 54.3106C18.4813 54.1895 18.605 54.1041 18.7466 54.0722C18.8883 54.0404 19.0367 54.0646 19.1609 54.1398C19.5577 54.3926 19.9682 54.6318 20.3856 54.8709C20.4941 54.9275 20.5802 55.0192 20.6298 55.1309C20.6793 55.2427 20.6894 55.368 20.6584 55.4862C20.6275 55.6045 20.5572 55.7087 20.4591 55.7819C20.3611 55.8551 20.2411 55.8929 20.1188 55.8891ZM15.9109 53.0328C15.7839 53.0329 15.6607 52.9895 15.5619 52.9098C15.1788 52.5955 14.8093 52.2743 14.4399 51.9395C14.3864 51.8915 14.3429 51.8334 14.3119 51.7686C14.2809 51.7038 14.263 51.6336 14.2592 51.5619C14.2553 51.4902 14.2657 51.4184 14.2897 51.3507C14.3136 51.283 14.3507 51.2207 14.3988 51.1673C14.4468 51.1136 14.5051 51.07 14.5703 51.0391C14.6354 51.0082 14.7061 50.9907 14.7782 50.9875C14.8502 50.9843 14.9222 50.9955 14.9898 51.0206C15.0574 51.0456 15.1194 51.0839 15.172 51.1331C15.5277 51.4475 15.8904 51.7618 16.2598 52.0625C16.3476 52.1339 16.411 52.2308 16.4413 52.3398C16.4716 52.4488 16.4674 52.5645 16.4291 52.6709C16.3908 52.7774 16.3204 52.8693 16.2276 52.9341C16.1348 52.999 16.0241 53.0334 15.9109 53.0328ZM12.2641 49.4795C12.1849 49.4793 12.1066 49.462 12.0346 49.429C11.9626 49.396 11.8985 49.348 11.8467 49.2882C11.5251 48.9123 11.2104 48.5297 10.9094 48.1402C10.8186 48.026 10.777 47.8805 10.7937 47.7357C10.8104 47.5909 10.884 47.4586 10.9983 47.368C11.1126 47.2774 11.2583 47.2359 11.4033 47.2525C11.5483 47.2692 11.6807 47.3427 11.7715 47.4568C12.0657 47.8327 12.3667 48.2017 12.6814 48.5638C12.7744 48.675 12.82 48.8181 12.8084 48.9625C12.7969 49.1068 12.7292 49.2409 12.6199 49.336C12.52 49.4202 12.3947 49.4683 12.2641 49.4727V49.4795ZM9.31515 45.3385C9.2194 45.3382 9.12541 45.3128 9.04257 45.2648C8.95972 45.2169 8.89093 45.148 8.84305 45.0652C8.59674 44.6415 8.35042 44.211 8.11779 43.7737C8.05237 43.6447 8.04008 43.4953 8.08355 43.3574C8.12703 43.2195 8.22281 43.104 8.35042 43.0357C8.47841 42.968 8.62804 42.9538 8.76654 42.996C8.90504 43.0383 9.02112 43.1336 9.08937 43.2612C9.30831 43.6849 9.53638 44.1017 9.77357 44.5117C9.84629 44.636 9.86696 44.784 9.83109 44.9235C9.79522 45.0629 9.70571 45.1826 9.58199 45.2565C9.50191 45.307 9.40981 45.3353 9.31515 45.3385ZM7.08464 40.7329C6.9758 40.7327 6.86949 40.7001 6.77931 40.6392C6.68912 40.5783 6.61915 40.492 6.57833 40.3912C6.40044 39.9266 6.24307 39.4619 6.09255 38.9836C6.06921 38.9159 6.05977 38.8442 6.06478 38.7728C6.0698 38.7014 6.08917 38.6317 6.12174 38.5679C6.1543 38.5042 6.1994 38.4476 6.25434 38.4016C6.30928 38.3556 6.37293 38.3211 6.44149 38.3003C6.57941 38.2592 6.72793 38.2733 6.85563 38.3396C6.98332 38.4059 7.08017 38.5192 7.1257 38.6556C7.26938 39.1066 7.42675 39.5644 7.5978 40.0223C7.62278 40.0909 7.63392 40.1638 7.63057 40.2367C7.62723 40.3097 7.60946 40.3812 7.57829 40.4473C7.54713 40.5133 7.50319 40.5726 7.44899 40.6216C7.3948 40.6706 7.33143 40.7085 7.26254 40.7329C7.20349 40.7406 7.14369 40.7406 7.08464 40.7329ZM63.3674 32.2323C63.2234 32.2235 63.0887 32.1583 62.9926 32.0508C62.8965 31.9433 62.8467 31.8022 62.8542 31.6583C62.8542 31.303 62.8542 30.9408 62.8953 30.5787V30.2302C62.8953 30.1587 62.9095 30.0879 62.9371 30.022C62.9647 29.9561 63.0051 29.8962 63.056 29.846C63.1069 29.7958 63.1673 29.7562 63.2337 29.7295C63.3001 29.7027 63.3711 29.6894 63.4426 29.6904C63.5878 29.6904 63.727 29.7479 63.8297 29.8505C63.9323 29.953 63.99 30.092 63.99 30.237V30.606C63.99 30.975 63.99 31.3508 63.949 31.7198C63.9384 31.8643 63.8716 31.9988 63.7629 32.0946C63.6542 32.1904 63.5122 32.2399 63.3674 32.2323ZM63.2169 27.1415C63.0841 27.1391 62.9568 27.0885 62.8586 26.9992C62.7604 26.91 62.6981 26.7881 62.6832 26.6564C62.6284 26.1849 62.56 25.7134 62.4848 25.2419C62.4645 25.1681 62.4599 25.0908 62.4714 25.0151C62.4829 24.9394 62.5102 24.8669 62.5516 24.8025C62.5929 24.738 62.6473 24.6829 62.7114 24.6407C62.7754 24.5986 62.8475 24.5704 62.9232 24.5578C62.9988 24.5453 63.0762 24.5488 63.1504 24.5681C63.2246 24.5874 63.2939 24.622 63.3539 24.6698C63.4138 24.7175 63.463 24.7773 63.4984 24.8452C63.5337 24.9132 63.5543 24.9878 63.559 25.0642C63.6411 25.5494 63.7095 26.0414 63.7711 26.5334C63.7865 26.6764 63.7449 26.8197 63.6552 26.9323C63.5656 27.0448 63.4351 27.1176 63.2921 27.1347L63.2169 27.1415ZM62.1837 22.1601C62.0667 22.1592 61.9531 22.1209 61.8596 22.0508C61.766 21.9807 61.6973 21.8825 61.6637 21.7706C61.5269 21.3128 61.3763 20.8549 61.219 20.4039C61.1836 20.2716 61.1993 20.1308 61.2629 20.0095C61.3265 19.8882 61.4334 19.7951 61.5624 19.7487C61.6915 19.7023 61.8332 19.706 61.9597 19.759C62.0861 19.812 62.1881 19.9105 62.2453 20.0349C62.4095 20.4996 62.5669 20.9711 62.7105 21.4494C62.7325 21.5185 62.7403 21.5913 62.7335 21.6634C62.7268 21.7356 62.7055 21.8056 62.671 21.8694C62.6365 21.9332 62.5895 21.9893 62.5329 22.0346C62.4762 22.0798 62.411 22.1132 62.3411 22.1328C62.2867 22.1541 62.2283 22.1634 62.17 22.1601H62.1837ZM60.2953 17.4246C60.1942 17.4252 60.0948 17.3981 60.0079 17.3463C59.9211 17.2946 59.8501 17.22 59.8027 17.1308C59.5906 16.7003 59.3648 16.2835 59.1185 15.8666C59.0821 15.8045 59.0586 15.7357 59.0492 15.6643C59.0399 15.593 59.0449 15.5205 59.064 15.4511C59.0831 15.3817 59.116 15.3168 59.1606 15.2602C59.2052 15.2037 59.2606 15.1566 59.3237 15.1218C59.4503 15.0522 59.599 15.0346 59.7384 15.0729C59.8777 15.1112 59.9965 15.2023 60.0695 15.3268C60.3158 15.7573 60.5485 16.1946 60.7537 16.632C60.8186 16.7618 60.8299 16.9119 60.7851 17.0499C60.7403 17.1879 60.643 17.3029 60.5142 17.37C60.4418 17.4055 60.3623 17.4242 60.2816 17.4246H60.2953ZM57.5995 13.106C57.5146 13.106 57.4307 13.0863 57.3547 13.0483C57.2787 13.0103 57.2126 12.9552 57.1616 12.8873C56.8743 12.5047 56.5801 12.1289 56.2722 11.7667C56.2151 11.7134 56.1701 11.6485 56.1403 11.5763C56.1104 11.5042 56.0964 11.4265 56.0991 11.3485C56.1018 11.2705 56.1212 11.194 56.156 11.1241C56.1908 11.0542 56.2402 10.9926 56.3008 10.9433C56.3615 10.8941 56.432 10.8584 56.5076 10.8386C56.5832 10.8189 56.6621 10.8155 56.7392 10.8288C56.8162 10.8421 56.8895 10.8716 56.9541 10.9155C57.0187 10.9595 57.0731 11.0167 57.1137 11.0834C57.4285 11.4592 57.7364 11.8487 58.0374 12.245C58.0984 12.3262 58.1356 12.4228 58.1447 12.5239C58.1538 12.625 58.1346 12.7267 58.0891 12.8175C58.0436 12.9083 57.9738 12.9847 57.8873 13.038C57.8008 13.0914 57.7012 13.1197 57.5995 13.1197V13.106ZM54.1785 9.31355C54.0417 9.3135 53.9099 9.2623 53.809 9.17005C53.4601 8.84205 53.1248 8.52772 52.7348 8.22022C52.6255 8.12514 52.5578 7.99105 52.5463 7.84669C52.5347 7.70234 52.5803 7.55923 52.6733 7.44806C52.7199 7.3932 52.7769 7.34808 52.8411 7.31529C52.9052 7.28249 52.9752 7.26267 53.047 7.25695C53.1189 7.25124 53.1911 7.25975 53.2597 7.28199C53.3282 7.30423 53.3917 7.33977 53.4464 7.38656C53.8204 7.71001 54.1899 8.038 54.5548 8.37055C54.6063 8.42083 54.6473 8.48089 54.6752 8.54719C54.7032 8.61349 54.7175 8.6847 54.7175 8.75663C54.7175 8.82857 54.7032 8.89978 54.6752 8.96608C54.6473 9.03238 54.6063 9.09244 54.5548 9.14271C54.5057 9.19258 54.4471 9.23216 54.3825 9.25914C54.3179 9.28613 54.2485 9.29998 54.1785 9.29988V9.31355ZM15.5414 8.35689C15.4292 8.35723 15.3196 8.32311 15.2274 8.25917C15.1353 8.19522 15.065 8.10453 15.0262 7.99938C14.9874 7.89423 14.9819 7.77971 15.0104 7.67132C15.0389 7.56293 15.1001 7.46591 15.1856 7.3934C15.5619 7.07223 15.9519 6.76474 16.3419 6.46407C16.4572 6.37346 16.6037 6.33227 16.7494 6.34957C16.895 6.36687 17.0278 6.44124 17.1185 6.55632C17.2092 6.6714 17.2505 6.81777 17.2332 6.96322C17.2158 7.10866 17.1414 7.24128 17.0261 7.3319C16.6498 7.6189 16.2735 7.91956 15.9109 8.22706C15.809 8.31615 15.6767 8.36264 15.5414 8.35689ZM50.1691 6.17708C50.0622 6.17746 49.9575 6.14657 49.868 6.08824C49.4712 5.82858 49.0675 5.58258 48.657 5.34342C48.5316 5.26931 48.4405 5.1489 48.4034 5.00823C48.3663 4.86756 48.3861 4.71795 48.4585 4.59176C48.5314 4.46705 48.6508 4.37621 48.7905 4.33908C48.9303 4.30195 49.079 4.32155 49.2043 4.39359C49.6354 4.64642 50.0527 4.90609 50.4701 5.17259C50.569 5.23704 50.6444 5.33172 50.685 5.44249C50.7256 5.55326 50.7293 5.67417 50.6954 5.78717C50.6615 5.90018 50.592 5.99921 50.4971 6.06948C50.4022 6.13975 50.2872 6.1775 50.1691 6.17708ZM19.7014 5.41858C19.5815 5.41786 19.4652 5.37785 19.3703 5.3047C19.2754 5.23155 19.2071 5.1293 19.176 5.01367C19.145 4.89803 19.1528 4.7754 19.1982 4.66462C19.2437 4.55383 19.3243 4.46101 19.4277 4.40043C19.8519 4.15443 20.2898 3.91526 20.7277 3.68293C20.8565 3.61588 21.0068 3.60269 21.1454 3.64626C21.2839 3.68983 21.3995 3.78659 21.4666 3.91526C21.5338 4.04394 21.547 4.19398 21.5034 4.33238C21.4597 4.47078 21.3628 4.5862 21.234 4.65326C20.8098 4.87192 20.3924 5.10425 19.9819 5.33658C19.898 5.38979 19.8008 5.41822 19.7014 5.41858ZM45.7012 3.78543C45.6286 3.78512 45.5566 3.77121 45.4891 3.74443C45.0512 3.55993 44.6065 3.38227 44.1617 3.21827C44.0906 3.19651 44.0247 3.16051 43.968 3.11245C43.9113 3.0644 43.8649 3.00531 43.8319 2.93878C43.7988 2.87226 43.7796 2.7997 43.7755 2.72553C43.7715 2.65136 43.7826 2.57714 43.8082 2.5074C43.8338 2.43766 43.8733 2.37386 43.9245 2.3199C43.9756 2.26594 44.0372 2.22295 44.1055 2.19356C44.1738 2.16416 44.2474 2.14898 44.3217 2.14893C44.3961 2.14888 44.4697 2.16397 44.5381 2.19328C45.0033 2.36411 45.4617 2.54178 45.9065 2.73994C46.0199 2.79067 46.1127 2.87847 46.1696 2.98889C46.2264 3.0993 46.244 3.22576 46.2193 3.34745C46.1946 3.46914 46.1292 3.57881 46.0338 3.65841C45.9383 3.73802 45.8186 3.78282 45.6944 3.78543H45.7012ZM24.3198 3.25244C24.1913 3.2527 24.0668 3.20781 23.9681 3.12563C23.8695 3.04346 23.8029 2.92923 23.78 2.80296C23.7572 2.67668 23.7796 2.54641 23.8432 2.43494C23.9069 2.32348 24.0077 2.23793 24.1282 2.19328C24.5935 2.02245 25.0656 1.86528 25.5377 1.71495C25.6765 1.67417 25.8258 1.68922 25.9536 1.75689C26.0815 1.82457 26.1777 1.93949 26.2219 2.07712C26.2649 2.21485 26.2516 2.36398 26.1849 2.49198C26.1183 2.61998 26.0037 2.71648 25.8661 2.76044C25.4077 2.90394 24.9561 3.05427 24.4977 3.21827C24.4405 3.23876 24.3805 3.25029 24.3198 3.25244ZM40.8297 2.22061H40.7065C40.2412 2.11811 39.776 2.02245 39.3039 1.93362C39.2331 1.92206 39.1653 1.89654 39.1045 1.85856C39.0436 1.82057 38.991 1.77087 38.9496 1.71236C38.9082 1.65384 38.8789 1.58768 38.8634 1.51774C38.8478 1.44779 38.8464 1.37546 38.8591 1.30496C38.8715 1.23397 38.8978 1.16613 38.9366 1.10534C38.9753 1.04455 39.0257 0.991999 39.0848 0.950721C39.144 0.909444 39.2107 0.880248 39.2811 0.864815C39.3516 0.849382 39.4245 0.848016 39.4955 0.860794C39.9812 0.949626 40.467 1.04529 40.946 1.15462C41.0768 1.18436 41.1921 1.26103 41.27 1.37007C41.3479 1.47911 41.383 1.61293 41.3687 1.74612C41.3543 1.87932 41.2915 2.00261 41.1921 2.0926C41.0928 2.18259 40.9638 2.23301 40.8297 2.23428V2.22061ZM29.2461 1.92678C29.1172 1.92716 28.9924 1.88214 28.8935 1.79965C28.7946 1.71715 28.7281 1.60247 28.7055 1.47579C28.6928 1.40479 28.6945 1.33197 28.7105 1.26163C28.7264 1.19129 28.7564 1.12486 28.7985 1.06626C28.8405 1.00766 28.894 0.958075 28.9556 0.920438C29.0172 0.882801 29.0857 0.857873 29.1571 0.847127C29.6429 0.758295 30.1287 0.689962 30.6282 0.621629C30.7676 0.61348 30.905 0.658228 31.0128 0.74692C31.1207 0.835611 31.191 0.961702 31.2097 1.09996C31.2183 1.17131 31.2127 1.24365 31.1933 1.31285C31.1739 1.38204 31.141 1.44673 31.0965 1.50322C31.052 1.5597 30.9968 1.60688 30.9341 1.64204C30.8713 1.67719 30.8022 1.69965 30.7308 1.70812C30.2587 1.76962 29.7866 1.83795 29.3213 1.91995L29.2461 1.92678ZM35.7802 1.52362H34.9318H34.3502C34.2051 1.52362 34.0658 1.46603 33.9632 1.36351C33.8605 1.26099 33.8029 1.12194 33.8029 0.976959C33.8029 0.831976 33.8605 0.69293 33.9632 0.590411C34.0658 0.487892 34.2051 0.430298 34.3502 0.430298H34.9523H35.835C35.9801 0.430298 36.1193 0.487892 36.222 0.590411C36.3247 0.69293 36.3823 0.831976 36.3823 0.976959C36.3823 1.12194 36.3247 1.26099 36.222 1.36351C36.1193 1.46603 35.9801 1.52362 35.835 1.52362H35.7802Z" fill="#2C3361"/>
<path d="M11.368 7.96741L13.2496 11.2815C8.93907 13.7074 7.17382 18.1148 7.17382 22.5359H13.1401V34.9998H0.625977V24.5244C0.625977 16.8165 4.38226 10.0652 11.368 7.96741ZM27.3716 7.96741L29.3626 11.2815C24.8332 13.7074 23.2048 18.1148 23.2048 22.5359H29.171V34.9998H16.6295V24.5244C16.6295 16.8165 20.3858 10.0652 27.3442 7.96741H27.3716Z" fill="#2C3361"/>
<path d="M37.703 60.2351L35.7119 56.9209C40.2414 54.4951 41.8698 50.0876 41.8698 45.6665H35.9377V33.2163H48.4176V43.6849C48.4176 51.4065 44.6613 58.1372 37.703 60.2351ZM53.7065 60.2351L51.8249 56.9209C56.1354 54.4951 57.9007 50.0876 57.9007 45.6665H51.9344V33.2163H64.4212V43.6849C64.4212 51.4065 60.6649 58.1372 53.7065 60.2351Z" fill="#2C3361"/>
</svg>
